<svg xmlns="http://www.w3.org/2000/svg" xmlns:xlink="http://www.w3.org/1999/xlink" viewBox="0 0 2713.25 889.03"><defs><style>.cls-1{fill:url(#Névtelen_színátmenet_10);}.cls-2{fill:#fcc17a;}.cls-3,.cls-8{fill:#fff;}.cls-4{fill:#51a2ce;}.cls-4,.cls-7,.cls-8{fill-rule:evenodd;}.cls-5{fill:#216fa3;}.cls-6,.cls-7{fill:#521f20;}</style><linearGradient id="Névtelen_színátmenet_10" x1="2139.22" y1="51.21" x2="2139.22" y2="741.49" gradientUnits="userSpaceOnUse"><stop offset="0" stop-color="#fff"/><stop offset="1" stop-color="#e6e6e6"/></linearGradient></defs><g id="Réteg_3" data-name="Réteg 3"><path class="cls-1" d="M2178.51,719.12l10.09,10.08-1.11,1.1-10.08-10.08-10.08,10.08-1.11-1.1,10.09-10.08L2166.22,709l1.11-1.11L2177.41,718l10.08-10.08,1.11,1.11Zm82.77-100.76-1.1-1.1-10.09,10.08L2240,617.26l-1.1,1.1L2249,628.44l-10.08,10.08,1.1,1.11,10.08-10.08,10.09,10.08,1.1-1.11-10.08-10.08Zm159,101.86-1.11-1.1-10.08,10.08-10.08-10.08-1.11,1.1L2408,730.3,2398,740.39l1.11,1.1,10.08-10.08,10.08,10.08,1.11-1.1-10.08-10.09Zm-500.27-62.37c-4.2,0-6.3-2.12-8.52-4.36s-5-5-10-5-7.7,2.65-10,5-4.33,4.36-8.52,4.36-6.3-2.12-8.53-4.36-4.94-5-10-5-7.7,2.65-10,5-4.32,4.36-8.52,4.36-6.3-2.12-8.53-4.36-4.94-5-10-5-7.7,2.65-10,5-4.33,4.36-8.53,4.36-6.3-2.12-8.52-4.36-4.94-5-10-5-7.7,2.65-10,5-4.33,4.36-8.53,4.36-6.3-2.12-8.53-4.36-4.94-5-10-5-7.7,2.65-10,5-4.33,4.36-8.53,4.36-6.3-2.12-8.52-4.36-4.95-5-10-5-7.7,2.65-10,5-4.33,4.36-8.53,4.36-6.3-2.12-8.53-4.36-4.94-5-10-5-7.71,2.65-10,5-4.32,4.36-8.52,4.36-6.31-2.12-8.53-4.36-5-5-10-5v2.1c4.2,0,6.31,2.12,8.53,4.36s5,5,10,5,7.7-2.64,10-5,4.33-4.36,8.53-4.36,6.3,2.12,8.52,4.36,5,5,10,5,7.7-2.64,10-5,4.33-4.36,8.53-4.36,6.3,2.12,8.53,4.36,4.94,5,10,5,7.7-2.64,10-5,4.33-4.36,8.53-4.36,6.3,2.12,8.52,4.36,5,5,10,5,7.7-2.64,10-5,4.32-4.36,8.52-4.36,6.3,2.12,8.53,4.36,4.94,5,10,5,7.7-2.64,10-5,4.33-4.36,8.53-4.36,6.3,2.12,8.52,4.36,4.95,5,10,5,7.7-2.64,10-5,4.33-4.36,8.53-4.36,6.3,2.12,8.52,4.36,4.94,5,10,5,7.7-2.64,10-5,4.33-4.36,8.53-4.36,6.3,2.12,8.52,4.36,5,5,10,5Zm0-54.82c-4.2,0-6.3-2.12-8.52-4.36s-5-5-10-5-7.7,2.65-10,5S1887.17,603,1883,603s-6.3-2.12-8.53-4.36-4.94-5-10-5-7.7,2.65-10,5-4.32,4.36-8.52,4.36-6.3-2.12-8.53-4.36-4.94-5-10-5-7.7,2.65-10,5S1813,603,1808.81,603s-6.3-2.12-8.52-4.36-4.94-5-10-5-7.7,2.65-10,5-4.33,4.36-8.53,4.36-6.3-2.12-8.53-4.36-4.94-5-10-5-7.7,2.65-10,5-4.33,4.36-8.53,4.36-6.3-2.12-8.52-4.36-4.95-5-10-5-7.7,2.65-10,5-4.33,4.36-8.53,4.36-6.3-2.12-8.53-4.36-4.94-5-10-5-7.71,2.65-10,5-4.32,4.36-8.52,4.36-6.31-2.12-8.53-4.36-5-5-10-5v2.1c4.2,0,6.31,2.12,8.53,4.36s5,5,10,5,7.7-2.64,10-5,4.33-4.36,8.53-4.36,6.3,2.12,8.52,4.36,5,5,10,5,7.7-2.64,10-5,4.33-4.36,8.53-4.36,6.3,2.12,8.53,4.36,4.94,5,10,5,7.7-2.64,10-5,4.33-4.36,8.53-4.36,6.3,2.12,8.52,4.36,5,5,10,5,7.7-2.64,10-5,4.32-4.36,8.52-4.36,6.3,2.12,8.53,4.36,4.94,5,10,5,7.7-2.64,10-5,4.33-4.36,8.53-4.36,6.3,2.12,8.52,4.36,4.95,5,10,5,7.7-2.64,10-5,4.33-4.36,8.53-4.36,6.3,2.12,8.52,4.36,4.94,5,10,5,7.7-2.64,10-5,4.33-4.36,8.53-4.36,6.3,2.12,8.52,4.36,5,5,10,5Zm0-54.82c-4.2,0-6.3-2.12-8.52-4.36s-5-5-10-5-7.7,2.65-10,5-4.33,4.36-8.52,4.36-6.3-2.12-8.53-4.36-4.94-5-10-5-7.7,2.65-10,5-4.32,4.36-8.52,4.36-6.3-2.12-8.53-4.36-4.94-5-10-5-7.7,2.65-10,5-4.33,4.36-8.53,4.36-6.3-2.12-8.52-4.36-4.94-5-10-5-7.7,2.65-10,5-4.33,4.36-8.53,4.36-6.3-2.12-8.53-4.36-4.94-5-10-5-7.7,2.65-10,5-4.33,4.36-8.53,4.36-6.3-2.12-8.52-4.36-4.95-5-10-5-7.7,2.65-10,5-4.33,4.36-8.53,4.36-6.3-2.12-8.53-4.36-4.94-5-10-5-7.71,2.65-10,5-4.32,4.36-8.52,4.36-6.31-2.12-8.53-4.36-5-5-10-5V541c4.2,0,6.31,2.12,8.53,4.36s5,5,10,5,7.7-2.64,10-5,4.33-4.36,8.53-4.36,6.3,2.12,8.52,4.36,5,5,10,5,7.7-2.64,10-5,4.33-4.36,8.53-4.36,6.3,2.12,8.53,4.36,4.94,5,10,5,7.7-2.64,10-5,4.33-4.36,8.53-4.36,6.3,2.12,8.52,4.36,5,5,10,5,7.7-2.64,10-5,4.32-4.36,8.52-4.36,6.3,2.12,8.53,4.36,4.94,5,10,5,7.7-2.64,10-5,4.33-4.36,8.53-4.36,6.3,2.12,8.52,4.36,4.95,5,10,5,7.7-2.64,10-5,4.33-4.36,8.53-4.36,6.3,2.12,8.52,4.36,4.94,5,10,5,7.7-2.64,10-5,4.33-4.36,8.53-4.36,6.3,2.12,8.52,4.36,5,5,10,5ZM2562.23,56a4.76,4.76,0,1,0-4.76,4.76A4.77,4.77,0,0,0,2562.23,56Zm0,68.25a4.76,4.76,0,1,0-4.76,4.77A4.76,4.76,0,0,0,2562.23,124.23Zm0,68.26a4.76,4.76,0,1,0-4.76,4.76A4.76,4.76,0,0,0,2562.23,192.49Zm0,68.26a4.76,4.76,0,1,0-4.76,4.76A4.76,4.76,0,0,0,2562.23,260.75ZM2503.43,56a4.77,4.77,0,1,0-4.76,4.76A4.77,4.77,0,0,0,2503.43,56Zm0,68.25a4.77,4.77,0,1,0-4.76,4.77A4.76,4.76,0,0,0,2503.43,124.23Zm0,68.26a4.77,4.77,0,1,0-4.76,4.76A4.76,4.76,0,0,0,2503.43,192.49Zm0,68.26a4.77,4.77,0,1,0-4.76,4.76A4.76,4.76,0,0,0,2503.43,260.75ZM2444.62,56a4.76,4.76,0,1,0-4.76,4.76A4.77,4.77,0,0,0,2444.62,56Zm0,68.25a4.76,4.76,0,1,0-4.76,4.77A4.76,4.76,0,0,0,2444.62,124.23Zm0,68.26a4.76,4.76,0,1,0-4.76,4.76A4.76,4.76,0,0,0,2444.62,192.49Zm0,68.26a4.76,4.76,0,1,0-4.76,4.76A4.76,4.76,0,0,0,2444.62,260.75ZM2385.82,56a4.77,4.77,0,1,0-4.77,4.76A4.78,4.78,0,0,0,2385.82,56Zm0,68.25a4.77,4.77,0,1,0-4.77,4.77A4.77,4.77,0,0,0,2385.82,124.23Zm0,68.26a4.77,4.77,0,1,0-4.77,4.76A4.77,4.77,0,0,0,2385.82,192.49Zm0,68.26a4.77,4.77,0,1,0-4.77,4.76A4.77,4.77,0,0,0,2385.82,260.75ZM2327,56a4.76,4.76,0,1,0-4.76,4.76A4.77,4.77,0,0,0,2327,56Zm0,68.25a4.76,4.76,0,1,0-4.76,4.77A4.76,4.76,0,0,0,2327,124.23Zm0,68.26a4.76,4.76,0,1,0-4.76,4.76A4.76,4.76,0,0,0,2327,192.49Zm0,68.26a4.76,4.76,0,1,0-4.76,4.76A4.76,4.76,0,0,0,2327,260.75ZM2268.21,56a4.77,4.77,0,1,0-4.77,4.76A4.78,4.78,0,0,0,2268.21,56Zm0,68.25a4.77,4.77,0,1,0-4.77,4.77A4.77,4.77,0,0,0,2268.21,124.23Zm0,68.26a4.77,4.77,0,1,0-4.77,4.76A4.77,4.77,0,0,0,2268.21,192.49Zm0,68.26a4.77,4.77,0,1,0-4.77,4.76A4.77,4.77,0,0,0,2268.21,260.75Zm360.1,388.5c3.85-2.35,8.22-5,8.22-10.47s-4.37-8.12-8.22-10.47c-3.55-2.17-6.62-4-6.62-7.62s3.06-5.45,6.62-7.62c3.85-2.34,8.22-5,8.22-10.46s-4.37-8.12-8.22-10.47c-3.56-2.16-6.62-4-6.62-7.61s3.06-5.45,6.62-7.62c3.85-2.34,8.22-5,8.22-10.46s-4.37-8.12-8.22-10.46c-3.56-2.16-6.62-4-6.62-7.61s3.06-5.45,6.62-7.62c3.85-2.34,8.22-5,8.22-10.46s-4.37-8.12-8.22-10.46c-3.56-2.17-6.62-4-6.62-7.62s3.06-5.45,6.62-7.61c3.85-2.35,8.22-5,8.22-10.47s-4.37-8.11-8.22-10.46c-3.56-2.16-6.62-4-6.62-7.61s3.06-5.45,6.62-7.62c3.85-2.34,8.22-5,8.22-10.46s-4.37-8.12-8.22-10.46c-3.56-2.16-6.62-4-6.62-7.61s3.06-5.45,6.62-7.62c3.85-2.34,8.22-5,8.22-10.46s-4.37-8.11-8.22-10.46c-3.56-2.16-6.62-4-6.62-7.61s3.06-5.45,6.62-7.62c3.85-2.34,8.22-5,8.22-10.46h-3.34c0,3.58-3.07,5.45-6.62,7.61-3.85,2.35-8.22,5-8.22,10.47s4.37,8.11,8.22,10.46c3.55,2.16,6.62,4,6.62,7.61s-3.07,5.45-6.62,7.61c-3.85,2.35-8.22,5-8.22,10.47s4.37,8.11,8.22,10.46c3.55,2.16,6.62,4,6.62,7.61s-3.07,5.45-6.62,7.61c-3.85,2.35-8.22,5-8.22,10.47s4.37,8.11,8.22,10.46c3.55,2.16,6.62,4,6.62,7.61s-3.07,5.46-6.62,7.62c-3.85,2.35-8.22,5-8.22,10.46s4.37,8.12,8.22,10.46c3.55,2.17,6.62,4,6.62,7.62s-3.07,5.45-6.62,7.61c-3.85,2.35-8.22,5-8.22,10.47s4.37,8.11,8.22,10.46c3.55,2.16,6.62,4,6.62,7.61s-3.07,5.45-6.62,7.61c-3.85,2.35-8.22,5-8.22,10.47s4.37,8.11,8.22,10.46c3.55,2.17,6.62,4,6.62,7.62s-3.07,5.45-6.62,7.61c-3.85,2.35-8.22,5-8.22,10.47s4.37,8.12,8.22,10.47c3.55,2.16,6.62,4,6.62,7.62s-3.07,5.45-6.62,7.62c-3.85,2.34-8.22,5-8.22,10.47h3.34C2621.69,653.28,2624.75,651.41,2628.31,649.25Z"/></g><g id="Réteg_1" data-name="Réteg 1"><path class="cls-2" d="M314.08,851c180.18,0,334.77-106.66,400.78-258.66a86.64,86.64,0,0,0-38.18-17c-23.73-4-51.74,4.13-62,25.9-12.34-23.52-52.8-36.79-80.08-16.4-12.64-20.38-44.21-25.55-62.68-10.27-2.42-28.67-31.82-50.72-60.56-49.25s-54.14,23-64.93,49.69c-7.86-11.78-29.21-9.44-34.33,3.77-5.18-20.08-12.13-42.47-30.59-51.92-13.15-6.74-29.86-4.73-42.1,3.55S219.3,552.51,216.66,567a17.88,17.88,0,0,0-34.44,7.56c-22-27.67-64.28-34.31-96.45-19.66S31.76,602,24,636.49c-9.81-10.57-28.14-11.59-39.06-2.18s-12.61,27.7-3.61,39A40.39,40.39,0,0,0-48.2,661.91C29.74,775.87,162.89,851,314.08,851Z"/><path class="cls-2" d="M-96.74,509.48c17.91-36.3,76.62-56.77,116.21-25.31,18.33-31.45,64.15-39.43,91-15.84,3.5-44.25,46.18-78.27,87.88-76s78.56,35.51,94.22,76.67c11.4-18.18,42.38-14.57,49.81,5.81,7.52-31,17.6-65.54,44.39-80.12,19.09-10.39,43.34-7.3,61.09,5.49s29.16,34.18,33,56.61c4.53-12,17.76-19.41,29.62-16.65s20.95,15.42,20.35,28.31c31.91-42.7,93.27-52.94,140-30.33,30.08,14.56,53.92,40.51,70.12,71.35A415.15,415.15,0,0,0,749,427.57C749,193.72,554.29,4.16,314.08,4.16S-120.87,193.72-120.87,427.57a414.48,414.48,0,0,0,4,56.81A63.61,63.61,0,0,1-96.74,509.48Z"/><path class="cls-3" d="M-18.71,673.26c-9-11.25-7.3-29.54,3.61-39s29.25-8.39,39.06,2.18c7.8-34.48,29.64-66.9,61.81-81.55s74.46-8,96.45,19.66A17.88,17.88,0,0,1,216.66,567c2.64-14.53,10.5-28.4,22.73-36.69s28.95-10.29,42.1-3.55c18.46,9.45,25.41,31.84,30.59,51.92,5.12-13.21,26.47-15.55,34.33-3.77,10.79-26.67,36.19-48.21,64.93-49.69s58.14,20.58,60.56,49.25c18.47-15.28,50-10.11,62.68,10.27,27.28-20.39,67.74-7.12,80.08,16.4,10.28-21.77,38.29-29.94,62-25.9a86.64,86.64,0,0,1,38.18,17,412.24,412.24,0,0,0,26-82.84c-16.2-30.84-40-56.79-70.12-71.35-46.68-22.61-108-12.37-140,30.33.6-12.89-8.49-25.54-20.35-28.31s-25.09,4.67-29.62,16.65c-3.84-22.43-15.24-43.83-33-56.61s-42-15.88-61.09-5.49c-26.79,14.58-36.87,49.13-44.39,80.12-7.43-20.38-38.41-24-49.81-5.81-15.66-41.16-52.52-74.39-94.22-76.67s-84.38,31.74-87.88,76c-26.81-23.59-72.63-15.61-91,15.84-39.59-31.46-98.3-11-116.21,25.31a63.61,63.61,0,0,0-20.16-25.1A414.2,414.2,0,0,0-48.2,661.91,40.39,40.39,0,0,1-18.71,673.26Z"/><path class="cls-2" d="M649.65,154.33c.83.07,1.67.12,2.5.12a26.31,26.31,0,1,0,0-52.62,25.79,25.79,0,0,0-10.58,2.24,36.95,36.95,0,0,0-42.75-26.52,50.16,50.16,0,0,0-92.18,33.55,22.36,22.36,0,0,0,7.72,43.35H649.65Z"/><path class="cls-2" d="M71.5,132.59c-1.36-16.7-12.37-25.65-24.93-26.12A74.67,74.67,0,0,0-23,59a74.67,74.67,0,0,0-74.65,74.69c0,1,0,1.93.07,2.89-21.75-9.87-39,9-37.36,25.15,1.37,13.75,12.73,31.29,40.55,31.29H62.19c23.83-.72,42.87-14.15,42.87-30.68C105.06,148,90.8,136,71.5,132.59Z"/><path class="cls-3" d="M53.58,140.78C52.42,126.51,43,118.87,32.27,118.46A63.81,63.81,0,0,0-27.14,77.87a63.8,63.8,0,0,0-63.79,63.82c0,.83,0,1.65.06,2.47-18.58-8.44-33.31,7.65-31.92,21.48,1.17,11.76,10.88,26.74,34.65,26.74H45.61c20.37-.61,36.64-12.09,36.64-26.21C82.25,154,70.06,143.71,53.58,140.78Z"/><path class="cls-3" d="M644,157.63c.77.06,1.54.11,2.3.11a24.21,24.21,0,1,0,0-48.41,23.64,23.64,0,0,0-9.73,2.06,34,34,0,0,0-32.8-25,33.32,33.32,0,0,0-6.53.64A46.17,46.17,0,0,0,512,111.56a45.25,45.25,0,0,0,.44,6.3,20.57,20.57,0,0,0,7.1,39.88H644Z"/><path class="cls-4" d="M-216.57,802.54H847.71c19.42,2.4,19.42,13.27,3.22,14.74l-248.42,6c-50.43,10,16,15.18,27.7,15.12l77-.37c14.82-.07,84.75,13.64,38.94,15.38l-291.61,6c-7,.14-16.8,4.86-13.27,10.86,73.15-.22,142,11.78,107.87,17.18q-163.38,2.22-326.8,1.37c-16.13-.08-103.76-5.17-46.79-9.24l127-3.68c44.72-17-87-13.15-130.95-13.54-105-.3-105.78-16.55-3.41-18.25,7.85-.14,18.81-7.42,12.93-12.61l-335.32-2.26c-45.62-4.77-1.8-9.58-2.7-14.37a211,211,0,0,1-78.69-8C-227.95,805.86-224.25,803.54-216.57,802.54Z"/><path class="cls-5" d="M132.4,768.77c1.07-20.34,5.3-39.78,11.81-54.18a284.38,284.38,0,0,0-5.12,49.8c.6-18.41,17.43-106.87,25.16-113.28-4.3,10.83-16.5,98.87-13.77,112q5.81-32.05,12.22-63.54c6.54-32.08,13.92-64.8,26.3-86.59s31.12-29.4,43.79-8.48c-17.62-8.92-36.5,10.29-48.08,41.33s-16.7,72-18,112.32c3.7-18.77,7.47-37.75,13.08-54s13.35-29.7,22.36-33.48c-12.72,15.5-20,50.69-16.95,82.4,2.73-25.36,30.22-109.71,41.19-118.55-22.89,64-27.75,102.13-28.71,124,2.72-17.23,8-32.37,14.8-42.48q-1.07,23-2.15,46c4-18,8.37-36,14.5-50.7s14.24-26.2,23.19-28.38c-8.78,18.83-14.17,45.36-14.73,72.54,3.07-18.2,10.14-32.79,18.49-38.16a188.07,188.07,0,0,0-10.11,39c.8-5.78,4.19-8.9,6.58-6.06-3.91,9.91-4.84,25.19-2.26,37.08l-267,.68c6.3-49.94,10.54-186.54,42.77-223.76C8.11,594.41-.84,690.2-3,732.82c8.3-46.39,12-54.42,27.74-89.94C12.56,677.8,9.3,684.27,9.65,728.63c4.53-26.36,6.42-14.06,12.44-38.9a682.79,682.79,0,0,0-3.7,74.38c8.19-72.66,20.79-145.54,44.5-198.45C42.74,618,30.61,685.49,29,754.47,33.36,722.6,48,632.93,63.36,597c-7.22,33.3-25.18,139-24.62,176C51.24,694.48,90.48,528,116.61,468.52c-20.08,71.54-58.36,186-39.23,242.4,1.94-43.68,2.8-117.59,41.1-180.8-17,70.17-37.77,186.35-32.7,228.3C87.44,722.17,88,689.18,97.07,659c-5.43,29.75-9.82,62.44-6.49,93.7A211,211,0,0,1,98,710.89a119.73,119.73,0,0,0,1.38,31.64c2.58-50.36,7.33-100.87,17.62-146s8.49-84.51,47.51-104.26c-19.82,14-34,54.72-40.89,98.64s-7.46,91.29-8,137.79c5.67-72.63,29-144.35,51-175.82C150.48,590.53,124.36,719.82,132.4,768.77Z"/><path class="cls-5" d="M386.73,761.22c1.19-22.58,5.89-44.16,13.11-60.16a315.82,315.82,0,0,0-5.68,55.3c.66-20.44,7-39.41,15.62-46.52-4.78,12-6,30.52-3,45.12q6.45-35.6,13.57-70.56c7.25-35.61,15.46-71.95,29.2-96.14s34.55-32.65,48.63-9.42c-19.57-9.9-40.54,11.43-53.4,45.89s-18.53,79.94-20,124.72c4.12-20.84,8.3-41.91,14.53-59.93s14.82-33,24.83-37.19c-14.12,17.22-22.16,56.3-18.83,91.5,3-28.15,12.7-52.28,24.87-62.1-6.12,20.21-9.94,43.88-11,68.17,3-19.13,8.89-35.95,16.44-47.17q-1.18,25.56-2.38,51.12c4.43-20,9.29-39.93,16.1-56.3S505.17,668.46,515.1,666c-9.75,20.91-15.73,50.37-16.36,80.55,3.41-20.21,11.26-36.41,20.54-42.38a208.86,208.86,0,0,0-11.23,43.36c.89-6.43,4.65-9.89,7.3-6.74-4.33,11-5.37,28-2.5,41.19l-296.43.74c7-55.45,20.05-107,37.7-149-15.2,33.32-25.06,78.59-27.42,125.91,9.22-51.51,23.09-98.83,40.53-138.27-13.57,38.78-21,88.17-20.58,137.42,5-29.27,10.91-57.82,17.59-85.4a757.15,757.15,0,0,0-4.1,82.59c9.09-80.68,23.08-161.6,49.4-220.36-22.37,58.1-35.84,133.06-37.66,209.66,4.88-35.39,12.41-68.94,22.19-98.83-8,37-11.95,78.38-11.34,119.47,13.88-87.25,28.57-177.48,57.59-243.5-16.1,70.94-28.18,152.57-18.87,229.36,2.17-48.5,5-100.47,19.39-137C328,653.57,323.56,705.71,329.2,752.29c1.84-40.26,8.18-79.45,18.3-113-6,33-10.9,69.33-7.2,104.05A233.15,233.15,0,0,1,348.54,697a132.81,132.81,0,0,0,1.53,35.13c2.86-55.92,8.13-112,19.56-162.15s29.52-94.2,52.75-115.77c-22,15.56-37.79,60.76-45.4,109.53s-8.28,101.37-8.89,153c5.1-45.79,17.14-87.57,33.67-116.86C383.88,641.68,377.8,706.87,386.73,761.22Z"/><path class="cls-5" d="M642.51,613.16c-7.22,34.26-10.23,72.5-8.67,109.9,8.37-44.75,17-90.41,31.68-127-11.88,34.62-17.45,78.82-15.33,121.48,6.65-31.94,17.63-59.72,31.25-79.13-9.55,22.55-17.26,48.66-22.67,76.78,7-18.11,16.09-32.43,26.26-41.28-6.74,13.66-11.91,30.84-14.93,49.61a243.08,243.08,0,0,1,24.31-41.79,203.32,203.32,0,0,0-5.61,47.3c4.59-19.86,11.89-36.81,20.78-48.24a194.42,194.42,0,0,0,3.64,59.62q5.65-18.21,11.32-36.4c3.7-11.89,7.41-23.83,11.9-34.42A168.39,168.39,0,0,1,757,634.23c-10.88,24.06-19.43,52.91-24.94,84.2,7.82-22.38,17.52-41.77,28.5-57a494.3,494.3,0,0,0-23.33,75.37c7.06-21.9,16.35-40.49,27-54.11-3.62,16.46-6.54,34-6.69,52.23s2.82,32.59,9.33,44.35c-23.46-.29-214.38,2-256.93,1.44,1.65-27.34,6.88-53.65,15-75.17a340.91,340.91,0,0,0-7.32,44.32c9.11-36.84,21.94-69.46,37.36-95-9.45,25.05-19.36,52.55-19.87,84.69q12.36-38.4,26.44-74.09c-9.33,20.46-15,48.41-15.51,76.93,5.79-28.13,12.28-55.9,21.26-79.93s20.64-44.25,34.34-53.7c-15.07,38.58-30.86,80.84-32.29,131,6.15-32.09,15.22-61.64,26.54-86.52-6.35,26-12.79,52.54-14.84,81.51,4.52-17.4,10.47-33.09,17.51-46.13a186.87,186.87,0,0,0-2.8,45.84q5.64-30.35,12-60.08c9.53-44.88,20.9-90.48,39.86-118.63,9.17-13.62,19.68-22.46,30.09-31.17-35.1,28.61-59.66,107.83-58.26,188C624.08,676.7,632,642.78,642.51,613.16Z"/><path class="cls-6" d="M624.54,764.88l14.88-27.26a177,177,0,0,0-6.8,45.66c12.07-37.56,28.41-72.51,48.26-103.21-15.83,25.8-32.3,55-31.9,88.7,9.53-31.62,26.47-58.94,47.67-76.9-15.32,22.09-31.4,46.26-34.53,76.47,18.54-36.28,50.9-58.39,83.14-56.81C722.33,723.44,698,736.8,684,764.46a139.26,139.26,0,0,1,36.76-24.18c-6,8.8-27.73,21.53-21.48,54.84,4.33-26,20-44,27.87-51.47-4.29,12-11.51,22.68-10.07,34.61,5.84-5.08,20.41-23.49,26.25-28.58q-.15,7.29-.29,14.58c17.33-36.74,35.39-74.54,61.92-98.78-20.28,27.48-41.44,57.07-48,95.15,14.37-26.4,32.1-49.34,52.14-67.45-12.6,19-38.55,66.61-43,91.57,9.63-24.06,28.61-50.37,38-59.16a114.33,114.33,0,0,0-12.66,31c7-9.37,15.7-16.32,25.08-20-6.87,7.44-34.1,30.85-34.1,68-29.86,0-286.73,0-325.78-.92,3.59-36.1,11.64-78.18,24.4-110.11s32-59.74,56.23-74.55c-24.51,12.54-43.09,41.9-53.47,74.89S470.52,763.37,470,799.3c11.94-54.07,37.52-100.22,63.32-144.22,7.44-12.71,15-25.4,23.79-36.35,13-16.22,28.53-28.27,44.54-38.25C621,568.37,641.69,559,663,557.53s43.39,5.34,60.43,23c-29-11.76-60.91-15.2-89,.11-15,8.15-28.2,21.21-41.27,34.15-26.6,26.35-53.6,53.22-73.62,88.9-15.74,28.05-26.69,60.89-33.3,95.13l28.87-54.88a202.26,202.26,0,0,0-9,34.47c12.66-46.17,36.14-86.61,66.1-113.81-26.33,36.2-51.53,79-55.08,129.95a250.58,250.58,0,0,1,34.47-55.48A92.28,92.28,0,0,0,541,775.68l11.48-20.32a96.55,96.55,0,0,0-2.69,32.31c12.64-50.42,26.5-103.38,56.13-137.83-21.65,38.31-34.49,85.87-36.25,134.31a225.21,225.21,0,0,1,20.43-43.83A251.73,251.73,0,0,0,584,784c11.82-49.8,30.08-96.7,53.66-137.85,10-17.35,21.36-34.21,36.25-42.55-36.83,46.07-54.62,115-60.26,183a315.2,315.2,0,0,1,26-71.44A226.73,226.73,0,0,0,624.54,764.88Z"/><path class="cls-7" d="M289.31,228.37C270.07,237,246.75,245,244.56,255c-.94,4.27.5,11.66,1.37,16,1.11,5.52,3.46,7.95,4.57,13.47.75,17.48-1.44,28.13-5.63,34.11-.33,10.82,17.17,2.19,28.48.31l4.38,15.34c-5.69,4.49-7.36,7.46-7.2,9.39-.1,1.88-.2,3.76-.31,5.63-15.9,13.2-27.32,25.41-35.68,36.93q.17,7,.31,14.09l-3.75,16.58-.63,19.72q-2,10.17-4.07,20.35c-3.86,19.71-2.94,28.89-2.5,39.12,1.53,8.29,2,11.36,7.2,17.84l6.88.94c1.67-.53,7.16-.31,8.83-.84l20.59,4,15-.62q3.6,8,7.19,16l12.84-6.88q3.92,11.88,7.82,23.78l.25,1.13-7.73,22.41-2.87-1-1.86,4.84a2.14,2.14,0,0,0,1.17,2.75l12.4,5.2a2.13,2.13,0,0,0,2.75-1l2.32-4.73,5.15,23.69,11.27,29.1c2.76,6,2.08,10,3.13,15,.48,3.72.78,7-2.8,10.78-4.94,0-8.32-.05-10.92,3.89-6.36,14.4-20.77,35.64-27.13,50,1,9.7,5.36,18.2,15.33,24.15-2,10-2.55,12.85-4.53,22.87-4,7.72-10,10.17-11.89,23.16-.1,2.92-1.93,4.63-2,7.55,3,2.19,7.78,5.59,10.8,7.78.73-.94,2.88.87,3.61-.07,3.54,6.89,5.68,11,9.22,17.91l51,.31c.67-3.71,1.81-7.39-5-11.58l-12.2-4.69q-2.36-4.85-4.7-9.7c1.13-6.28-.17-14.81-5-26.6,3.65-9.81,5.11-13.38,8.76-23.19,8.17-.78,15.38-7.36,20.56-15,3.12-16,7.3-35.06,10.43-51l-7.2-5.95c4.27-4.18,7.53-8.86,7.2-15.33,6.07-10.55,5.89-21.71,6.57-33.18.91-15.25,1.54-30.45-1.56-46,10.09,16.88,21.63,28.36,36.78,40.64,12.82,1.17,12.35,5,7.66,6.62q-6.31,2.45,2.5,6.26c-4.79,1.23-7.58,4-5.94,10.33-6.82,1.3-12.34,3.62-15,8.14l-24.42,70.1c2.45,5.05,7.31,5.66,12.52,5.64q-4.53,16.28-9.07,32.55c-5.33,7.74-8.79,15.91-8.14,25,.52,3.34,1,9.16,1.56,12.49,7.62.11,19.69.21,27.3.32.21-2,.11-2.23.32-4.21,16.41,1.52,16,3.81,25.59,5.49l51.64,1.25c1.54-4.38.79-8.76-5-13.15-7.09-1.14-17.11-1.08-21.28-3.44-10.63-7.57-11.67-17.23-27.85-26-2.46-6.61,2.71-20.4,8.13-34.43,12.37-1,22.32-4.84,31.93-9.08q3.12-33,6.26-66c2.15-3.87-.6-3.88-3.06-5.9,2.31-7,17.16-15.24,5.25-28.53-11.63-29.88-33-58.23-53.52-86.69-5.34-1.93-5.83-6.27-5.64-11q2.3-5.61-7.82-8.45c1.83-3.9.78-8.51-6.57-14.71l-4.07-7.51,3.75-1.57-2.19-5,3.76-1.57q-2-5.31-4.07-10.64l4.07-.94-8.28-17.12c-1.35.11-3.51-1.45-4.87-1.34l-1.56-9.08,12.83,5.63,4.38,6.58c11.58,8.73,24.77,10.2,38.19,10.64a25.27,25.27,0,0,0,16.58-9.08c4,.65,7.8.88,10.33-2.19,3.83-4.65,4.18-9.87,4.7-15,.37-5.22-4.94-10.43-12.84-15.65-.59-15-13-11.22-18.27-14.23-17.18-13.46-37.66-30.54-62-41.62,33.29-73.79,69.84-143.23,113.81-202.72S596.49,42.17,659.4,8.1l-1-1.86c-63.76,34.52-115.7,84.6-160.09,144.64s-81,129.72-114.48,203.84l2.83,1.27c-4-1.72-8.12-3.37-12.53-4.94l-1.57-4.69-36.3-7.83-12.52-9.07c3.87-4.34,7.74-2.34,8.76-5.95,1.25-4.44.12-9-3.44-14.09l3.13-9.07h4.88c-2.82-2-4.49-5.13-7.3-7.11,2.61-4.91,3.79-8.17,2.7-12.73,6.19-3.15,10.84-9.13,13.8-14.59,1.53-4.6-1-6-4.07-6.88l-21.9-6.89a38,38,0,0,1-18.78-22.22q-1.29-5.27-12.21-1.56Zm26.06,345.11,1.34,6.14-3.21-1.55,1.87-4.59Z"/><path class="cls-8" d="M345.51,261.19c-45.34,3.13-75.78,23.88-97.4,55.47,3.19-7.54,15.36-24.34,28.89-40.44,10.81-10.87,14.91-13.9,34.67-20.53-2.12-1.56-7.86-3.05-20.34.57-15.64,4.74-26.08,12.35-36.51,18.52,9.8-10.34,26.86-19,48.9-26.51l-7.24-10.07c-2.17-2.24-6.41-2.71-15.18.7-6.82,1.36-13.89,6.7-20.45,6.11,21.13-11.52,31.63-15.76,34.87-15,5.64,10,14.07,17.84,24.42,24.11l25.37,7.09Z"/><path class="cls-8" d="M331,301.39a36.34,36.34,0,0,0-3.76,8.73l4.24,8.31c1.29,2.65.53,4.71-4.77,5.48-3.49,3.68-6.63,5.38-9.18,3.88a49.8,49.8,0,0,1-10.77-1.94c-10.1-.53-21.84-.05-25.42-4.6l-6.53-10.6c-4.35,3.39-8.06.62-11.47-4.95q-.72-4.77,4.94-6.71c1.35.88,5.59,3.53,6.95,4.42.77-4.06-1-7.32,4.52-14.32l5.3-3.53c1.67,6.74,4.85,7,10.24,5.3,6.87-2.16,12.47-4,13.94-10.78,1-4.95,3.18-7.3,6.54-7.07,6.41,8.9,9.34,7.13,14.74,5.42,1.45,6.44,1.39,11.26-2,14.73l-5.83-1.42c2.3-2.14,1.64-3.52.6-5.28-.55,1.63.26,4.44-3.78,5.64a21.88,21.88,0,0,1-4.41.35l-5.65,2.83c-2.39.54-3-.46-1.76-3-1.59,2.28-2.72,4.41-.71,5.48h3.88c-3.81,3.66-9.1,6.84-7.59,12.72q-1.85-3.89-3.71-7.77c-5.88,1.13-11.65,1.6-16.59-2.48l-4.24-2.12,5.12,6.37c3,3.4,9,2.41,14.48,2.29,2.24,4.19,4.94,3.71,6.71,12.55q.26-3.18.53-6.36c1.27-2.12,2.68-4.21,8.29-5.13l3.53.71a13.68,13.68,0,0,0,7.77-2.47c2-.8,3.24-3,.78-4.33l2.75-1.15,2.35.81Z"/><path class="cls-8" d="M321.08,333.43c4.55,14.65,2.49,26.1,1.29,38.79a33.39,33.39,0,0,0-17.71-12.57c.17-9.08,2.36-16.52,7-22a10.64,10.64,0,0,0,9.46-4.25Z"/><path class="cls-8" d="M335.69,351.47c7.72,23.84,4.78,34.32,1.46,47.1-7.12-10.28-17.24-17.45-30.07-23.77,2.2-5.19,10.32-1.23,17.26.91l3.48-19.85c1.84-3.81,4.81-4.24,7.87-4.39Z"/><path class="cls-8" d="M265.31,363.74c-5.19,5.53-10.39,9.88-15.59,20.15-6.1-.65-9.59,3.19-12.86,7.42,2.8-5.16,8-9.61,11.41-13.18a81.39,81.39,0,0,1,17-14.39Z"/><path class="cls-8" d="M247.45,393.59c28.61,5,35.15,22.39,37.84,42-.18,10.05-4,15.1-9.38,17.88q-5.22,2.58-1.36,6.36c3.22,2.53,3.43,5.25.6,8.18-6.91-10.07-13.82-10.34-20.73-7.88-5.21,5.14,11.86-.22,18.46,10.76-16.65-2.37-26.23.35-30,7.27-3.27,5.43-5.55,8-5.6,4.09,4.65-10.83,3.74-15.83.31-18.18-5.81-2.67.81-15.95,6.2-28.18,3.44-11.48-.11-14.34-2.27-18.93-2.62-4.95-2-11.92,5.9-23.33Z"/><path class="cls-8" d="M304.81,479.49c-6.25-6-13.11-3.13-19.67-4.7l-13.47-2.42c-14.55-3.57-23.19,5.51-31.63,15-5.43,10.49-.57,10,5.75,7.88,5.5-2.42,6.1-9.31,12-11.81,9.71-4.16,11.07-1.33,7,6.81-3.23,8.35,1.42,5.75,5.6,3.79,7.24-3.76,6.32-.42,4.24,3.94-2.39,7,2.3,4.16,8-.15,11.82-10.1,14.05-4.82,20-5.46q1.14-6.44,2.27-12.87Z"/><path class="cls-8" d="M307.08,479.79l12.41-.76c.91,6.72.81,12.93-1.51,18-9.15.65-11.21,5.2-12.26,10.3l-4.39,2c-.54-3.68,2.26-15.74,5.75-29.54Z"/><path class="cls-8" d="M423.52,407.54c8.35,1.89,15.59-4.06,34.06.18,2.54-1.49,3.22-3.35-9.68-3.35-5.72-.54-3.47-2.61,4.84-2.42,2.83-.68,7.74-1.05,11,1.26,2.92,1.74,4.59,4.08,3.54,10.29,8.77,7,18.5,14.27,12.09,15.65-4.77-.78-9.55-.47-14.33,3.73-9.51.69-18.83,1.17-22.33-4.66-1.66-5.71-8.33-9.07-18.43-10.81q-.36-4.94-.74-9.87Z"/><path class="cls-8" d="M340.6,340.61c10.49,1.74,22.41,4.17,30.24,7.25q5.73,8.88,4.51,16.28c-2.66,3-4.18,5.56-3.18,7.22a3.9,3.9,0,0,0-1.84,4.59l-14,1.91c.79,7.07-.58,14.2,0,18.6,2.48.81,10.34-.89,12.54-.59-4.57,12.1-8.6,23.26-13.17,35.36q-3.53-8-7.06-15.89c3-8.44,3-21.3-1-40L339.49,350l6.66-1.38c0-.72,0-1.45,0-2.17l1.73.25c-2.45-1.93-4.81-4.19-7.26-6.11Z"/><path class="cls-8" d="M381.07,450.16c2.55,5.9,4.77,10.82,6.74,15.07,9.87-1.44,16-4,20-7.14-1.94-5.47-3.83-10.31-7.83-13.71-3.08,2.4-8.31,4.41-18.94,5.78Z"/><path class="cls-8" d="M381.91,460.93c1.82,6.62,3.56,12.73,5,17,7.16-.34,14.31-3.1,21.47-7.21-1-2.83-1.53-4.4-2.52-7.24-5.72,2.29-9.84,7-17.06,5.77-2.21-2.68-5.8-7.25-6.9-8.31Z"/><path class="cls-8" d="M359.8,440.47a253.45,253.45,0,0,1,17,47.23c13.61-4.26,22.85-8.36,30-10.56l-1.29-1.93c1.49-1.61,1.49-1.25-22.11,7.08-4.05-4.15-4.75-19.45-5.65-34.1,4-.08,7.21-.81,15.3-5-2-2.84-8.27-6.05-9.34-9.78-7.91,2.53-6.89,2.47-14.45,1.15q-1.53-5.73-3.08-11.45l-6.3,17.37Z"/><path class="cls-8" d="M402.19,365.3c9.61,4.81,30.32,18.8,47.26,35.1-9.52,0-13.71-2.91-26.11-.22-2.32-1.38-8.11-16.83-20.09-25.55a75.56,75.56,0,0,0-1.06-9.33Z"/><path class="cls-8" d="M383.42,496.83c8.53-5.34,16.11-8.59,22.3-8.79q11,8.1,7.2,9.15c-8.31,1.34-13.7,3-12.64,5.27q6.15-.61,11.59-1.58,12.12,4.49,9.48,10.37c-4.65,2.28.16,6.62,6.32,11.25C458.3,560,474,589.92,478.25,604.78q12.3,18.54-2.81,13.18-2.9-4.05-12.82-4.57c-12.14-1.95-15.65-9.49-19.67-16.7C437.33,585.55,428.64,578,423,566.87c-2.07-6.83-3.75-16.09-12.38-20.11-5.28-1.34-9.51-3.5-6.32-11.42,3.12-6.06,4.77-10.35-3.87-2.29-7.28,5.6-12.1,8.55.35-7,13.12-10.79,11.42-11.9,3-8.62q-5.27,3.35-10.54,6.68-4.92-13.62-9.83-27.25Z"/><path class="cls-8" d="M379.91,500.18q11.41,15.9,10.88,27.6,1.15,7.47-6.14,12.83L382,536.39a66.47,66.47,0,0,1,.18,31.82c2.33,23.19,4.33,46.17.53,65.57-.64,6.92-1.81,13.49-6.68,17.58-.46,7.1-1.68,13.32-8.25,13.36q-11.15,3.69-10.36-10.19-5-13.63-10-27.25c-2.48-8.78-1.55-47.35,10.85-71,8.15-10.61,17.62-23.06.7-9-17.5,14.58-24.2,27.72-16.86,14.07,4.54-8.45,12.06-17.33,23.36-25.67,11.87-8.77,3.83-5.88-10.71,3-20.2,12.32-25.73,4.93-5.27-3.87,24.9-10.7,27.28-14,6-6.15-17.39,5.8-13.53,0,0-11.08,3.69-3.63.74-.05,4.43-3.68,4.81-4.91,10-9.75,20-13.71Z"/><path class="cls-8" d="M477.32,637.63c2.73.74,2.16,4.5-.18,10L472,707.27c-20.25,8.65-40.83,10.93-61.55,10.62,28-16.79,45.89-37.25,55-61,1.31-3.42-.64-3.18-3.36,1.06-12.67,19.76-28.3,33.37-46.35,41.22-19.25,7.59-29.36,3.83-3.36-26.71,8.77-10.29,18.27-14.2,10-17.52-6.68-2.7-12.63-6.63-5.6-9.54,1.83,4.87,18.5,5,51.47,0,4.48-.68,7.49-2.1,7.25-5.13l1.77-2.61Z"/><path class="cls-8" d="M432.39,752.91a107.2,107.2,0,0,1,27.59,26c7.54,4.43,12.7,3.18,21.41,3.54,3.16-.14,5.75,4,4.24,8.49-15.87.89-33.69,2.4-39.62-2.66-4.38-10.57-9.95-17.78-17.16-20.34-4.07-4.18-11.32-5.72-12.2-12.56-7.89,1.22-12.52.56-8.14-5.3q1.33-2.83,11.15-7.08l12.55-4.6c-2.07,5.19-3.43,10.27.18,14.51Z"/><path class="cls-8" d="M328.8,663.88c-1.19,5.39-.65,16.27,12.36,18.59,10,1.78,20.35,2.88,33.22-3.75q3.3-4.29-1.25-6.43l1.83-2.22c2.16,2.1,4,4.13,3.35,5.61-3.34,15.3-8.13,32.72-11.47,48-13.34,21.17-47.39,15.63-60.36,4.78,18.83-2.18,36.1-6.59,49.6-19.21,11.34-10.59,19.56-21,1.15-9.3-22.27,14.15-63.7,23.41-36.61,7.15,6.84-4.11,13.65-7.21,21.25-14.65,4.89-4.78,3.88-4.11-2.85-4.82-11.23-1.18-13.64-10.84-15.13-21.87,2.55-3.46,2.36-2.36,4.91-1.9Z"/><path class="cls-8" d="M339.11,765.17c4.28,8.29,5.07,15.77,4.88,23A36,36,0,0,0,324.58,795c-4,3.66-1.89,3.4,1,2.58,5.79-4.52,11.57-6.31,17.36-7.72,5.93.08,3.74,1.07.38,2.18q-8,1.17-12.34,6.44c-.74,2.28-.7,3.83,4.76.25a9.38,9.38,0,0,1,10-3.34,10.66,10.66,0,0,1,4.76,6.43c9.27,2,15.34,4.7,12.6,9.14-9.79,2.47-23.12,2.34-38,1q-10,1.23-12.22-13c-.69-6.56,0-13.14,6.82-22.39,6-8,11.75-13.79,19.41-11.45Z"/><path class="cls-7" d="M324.54,318.74a7.58,7.58,0,0,1,1.65,4.05c2.27-3.42-.91-3.71-1.65-4.05Z"/><path class="cls-8" d="M322.12,293.54a14.72,14.72,0,0,1,10.57,4.14c-2-1.48-4.73-2.66-10.24-2.81,2.18.55,4.08,1.26,4,3.14-1.35-1.43-3.36-2-6-1.66,1.67.32,2.72,1,2.4,2.4-1.61-1.11-4-1.47-8-.16l-5,2,5.53-4.46,5-1.08,1.74-1.49Z"/><polygon class="cls-8" points="323.89 520.81 304.65 573.13 307.46 574.38 326.24 521.75 323.89 520.81 323.89 520.81"/><polygon class="cls-8" points="301.37 573.11 300.27 576.26 314.04 580.8 301.37 573.11 301.37 573.11"/><polygon class="cls-8" points="323.27 512.34 322.17 515.48 335.94 520.02 323.27 512.34 323.27 512.34"/><path class="cls-6" d="M560.47,456.09l-1-.35c17.74-49.53,9.68-80.15-27.83-105.69-24.23-16.5-37.18-36.62-37.44-58.18-.38-31.19,24.86-65.23,75-101.19,61.51-44.1,90-102.12,89.65-182.58h1c.36,80.82-28.27,139.11-90.08,183.42-49.86,35.75-75,69.51-74.57,100.33.25,21.22,13,41,37,57.35C570.23,375.05,578.41,406,560.47,456.09Z"/><path class="cls-7" d="M549.77,460.45c-10.31,12.32-27.5,30.75-19.31,32-18.2,32.43-17.28,55.13-7.06,75.45,9.61,19.1,17.76,35.41,16.85,54.19,7.17-10.65,14.63-20.75,2.81-67.1-2.15-45.63,4-46.87,11-61.49,4.4,6.08,8.62-24.13,8.14-32.29-.51-8.82-7.55-6.5-12.38-.73Z"/><path class="cls-6" d="M540,622.84l0-.79c.91-18.82-7.31-35.16-16.82-54.08-11.54-22.93-9.41-46.19,6.91-75.39a2.34,2.34,0,0,1-1.86-1.42c-1.52-4.08,8.27-15.53,16.92-25.64,1.54-1.8,3-3.56,4.42-5.21,2.69-3.21,5.9-5.2,8.37-5.2,1.51,0,4.09.79,4.4,6.06.37,6.38-2.35,28.83-6,32.72a1.63,1.63,0,0,1-1.16.6h0a1.59,1.59,0,0,1-1.14-.61c-1.1,2.29-2.18,4.24-3.22,6.12-5.42,9.84-9.34,16.94-7.55,55,11.66,45.7,4.45,56.4-2.52,66.75Zm18-167.3c-2.35,0-5.42,1.94-8,5-1.38,1.65-2.88,3.41-4.43,5.22-8.14,9.52-18.27,21.36-16.84,25.19a2.06,2.06,0,0,0,1.83,1.21l.31,0-.16.28c-16.37,29.18-18.55,52.38-7,75.25,9.41,18.71,17.56,34.91,16.9,53.52,6.89-10.22,13.9-21,2.35-66.29-1.81-38.17,2.14-45.32,7.6-55.22,1.09-2,2.21-4,3.36-6.41L554,493l.22.3c.34.48.68.71,1,.71h0a1.2,1.2,0,0,0,.84-.46c3.34-3.54,6.31-25.44,5.9-32.4C561.72,457.5,560.34,455.54,558,455.54Z"/><path class="cls-7" d="M541.45,614.19c-13.21,20.29-22.74,39-23.86,55.6-.87,13.07,5.62,7.48,16.85-16.85q5.47-11,10.95-3.93,12.78,10.11,8.7-5.62l-12.64-29.2Z"/><path class="cls-6" d="M519.27,676.87a1.34,1.34,0,0,1-1-.45c-.82-.88-1.12-3.12-.89-6.65,1-14.66,8.36-31.84,23.9-55.69l.22-.34.16.37,12.65,29.2c1.23,4.76,1.32,7.72.28,9.06a2.11,2.11,0,0,1-1.77.81h0c-1.68,0-4.15-1.31-7.56-4-1.41-1.8-2.79-2.69-4.14-2.69-2.12,0-4.3,2.2-6.47,6.55C527.54,668.4,522.09,676.87,519.27,676.87Zm22.14-62.21c-15.34,23.61-22.63,40.62-23.6,55.14-.28,4.24.26,5.78.77,6.32a.91.91,0,0,0,.69.31c1.23,0,5.15-2.29,15-23.58,2.29-4.58,4.54-6.8,6.87-6.8,1.49,0,3,1,4.45,2.83,3.24,2.55,5.69,3.87,7.25,3.87h0a1.69,1.69,0,0,0,1.43-.65c.93-1.21.82-4.12-.36-8.65Z"/><path class="cls-7" d="M523,510.55c-3.45,3.12-7.12,3.17-15.84,12.68q-7.86,11.37,4.49,9.27c3.7-7,7.26-12.69,9.83-8.71.66-5.71.87-7.53,1.52-13.24Z"/><path class="cls-8" d="M547.65,473.8c1.15.53,1,3.37-.42,6.33s-3.43,4.94-4.58,4.4-1-3.37.42-6.34,3.43-4.93,4.58-4.39Z"/><path class="cls-7" d="M546.13,475.55c1,.49.87,3-.37,5.71s-3.09,4.44-4.12,3.95-.87-3,.37-5.7,3.09-4.44,4.12-4Z"/><path class="cls-8" d="M558.39,458.48C555,478.38,547.44,484.14,540.2,491c6.78-2.31,12.85-3.9,13.95-.53,5.39-20.22,8.28-34.42,4.24-32Z"/><path class="cls-8" d="M544.44,493.13c-19.5,25.27-5.55,64.58.88,102.19,5.81-25.47-20.36-50.15,5.87-101.47.52-5.22-3.38-2.6-6.75-.72Z"/><path class="cls-6" d="M545.29,596.44l-.18-1.09c-1.22-7.14-2.74-14.45-4.2-21.51-6.43-31-12.5-60.29,3.36-80.84l.06-.06.76-.43c1.69-1,3.43-1.95,4.66-1.95a1.49,1.49,0,0,1,1.17.48,3.67,3.67,0,0,1,.49,2.83l0,.08c-16.87,33-11.95,55.3-8,73.22,2.26,10.25,4.21,19.09,2.14,28.2Zm-.7-103.14c-15.71,20.39-9.66,49.56-3.26,80.45,1.39,6.7,2.83,13.61,4,20.4,1.65-8.62-.22-17.11-2.38-26.89-4-18-8.91-40.35,8-73.47a3.36,3.36,0,0,0-.38-2.46,1.09,1.09,0,0,0-.85-.33c-1.11,0-2.8,1-4.44,1.89Z"/><path class="cls-7" d="M545.24,503.29c2,3,3.06,3.79,8.33,12.14,3.45,6-7.4,21.75-11.21,18-2.7-5.18-2.82-3.68-3.32-2.45-2.4-6.88,1-24.86,6.2-27.68Z"/><path class="cls-8" d="M540.31,620.36c-9.89,15.77-15.5,33-19.58,51.5.35-18.62,7-28.28,11.95-40.56,1.6-3.93,5.09-7.54,7.63-10.94Z"/><path class="cls-8" d="M538.9,628.19c-2,6.11-6.06,21.44-8.73,30.36-1-5.23,3.88-18.49,4.64-21.2.9-3.22,2.72-6.1,4.09-9.16Z"/><path class="cls-8" d="M539.18,624.41c-5,10.6-11.07,30.82-13.9,42,.4-13.45,8.13-31.89,13.9-42Z"/><path class="cls-8" d="M541.28,623.82c-2,6.11-1.29,15.07-5.15,24a172.36,172.36,0,0,1,5.15-24Z"/><path class="cls-8" d="M540.14,503.48a48.24,48.24,0,0,1,12.45,16.93c-.46-5.62-6-12.61-12.45-16.93Z"/><path class="cls-8" d="M539.76,505.91c4.32,4.53,8.44,11.82,10.57,17.23-.62-5.65-4.89-13-10.57-17.23Z"/><path class="cls-8" d="M539.38,508.34c3.36,4.61,6.67,12.22,8.68,17.54-.78-5.68-3.72-13.36-8.68-17.54Z"/><path class="cls-8" d="M539,510.77c2.4,4.69,4.9,12.63,6.81,17.85-.95-5.72-2.57-13.74-6.81-17.85Z"/><path class="cls-8" d="M538.6,513.2c1.45,4.77,3.13,13,4.94,18.15-1.11-5.74-1.42-14.1-4.94-18.15Z"/><path class="cls-8" d="M278.62,253.32c4.71-1.62,12.91-3.6,18-5.59-5.7,1.32-17.76-1.79-18,5.59Z"/><path class="cls-8" d="M331.87,265c.67,3.23,2.1,5.64,0,11.64,2.5-3.49,3.31-10.26,0-11.64Z"/><path class="cls-8" d="M305.56,271.58c.71,3.23,2.16,5.62.09,11.64,2.46-3.51,3.2-10.29-.09-11.64Z"/><path class="cls-7" d="M311.12,275.16a9.15,9.15,0,0,1,2.16,3,28.15,28.15,0,0,0,2.68,3.24c.09.11,1.88,2.79.84,2.68a23,23,0,0,1-2.79-1.64c-1.6-.8-3-.23-3.91-2-.66-1.23-.2-2.88,1-5.25Z"/><path class="cls-7" d="M269.35,299.32c.16,1.41.26.93-.14,2a6,6,0,0,0-.57,2.54c0,.62,1.22,1.07,1.55,1.41,1.24,1.24-1.25,1.4-2.11,0a4.38,4.38,0,0,0-.84-1c-.2-.19-1-.23-1.27-.42-.77-.52-1.69-.82-1.69-2a3.37,3.37,0,0,1,2.25-3.53c.29-.11,1.51-.53,1.83-.14s.55,1.15,1,1.13Z"/><path class="cls-7" d="M280.12,291.19a40.3,40.3,0,0,1,8-6.63c-4.32-.28-7.8,5-8,6.63Z"/><path class="cls-7" d="M313.53,309.31c0,2,.59,2.87,2.77,2.87.9,0,3.15.41,3.82,0,.2-.13,2.58-.61,1.43-1.06-.68-.26-1.82.16-2.58-.09-1.19-.39-1.77-1.2-2.86-1.62a6.21,6.21,0,0,0-1.62-.39c-1.23-.13-.55.31-1,.29Z"/><path class="cls-8" d="M315.25,305.16a12.65,12.65,0,0,0,4.48-1.2,20.45,20.45,0,0,1,3.34-1.43c.73-.09.53,1.42.29,1.72-.92,1.14-6.23,1.39-8.11.91Z"/><path class="cls-6" d="M317.84,305.61a11.85,11.85,0,0,1-2.64-.24l-1.43-.37,1.47-.06a12.29,12.29,0,0,0,4.4-1.18c.22-.09.5-.23.81-.38a11.49,11.49,0,0,1,2.59-1.06.57.57,0,0,1,.64.36,2.1,2.1,0,0,1-.15,1.71C322.75,305.35,319.58,305.61,317.84,305.61Zm-.92-.46.92,0c2.56,0,4.86-.45,5.35-1.06a1.81,1.81,0,0,0,.09-1.25c0-.1-.1-.11-.15-.11a11.28,11.28,0,0,0-2.49,1c-.32.16-.6.3-.82.39A15,15,0,0,1,316.92,305.15Z"/><path class="cls-7" d="M318.32,338.31c.32,1.42,0,1.76-.37,2.95-.24.88-1.64,2.94-2.39,3.13-.45.12-1,.74-.19.74a5.61,5.61,0,0,0,2.77-.92,3.36,3.36,0,0,0,.18-5.9Z"/><path class="cls-7" d="M261.69,447.57c10.61,1.46,10.58,12.26,10.91,8.27,1.11-13.62-9.75-7.35-10.91-8.27Z"/><path class="cls-7" d="M360.37,396.52c-.25,4.08,1.2,16.26,3.27,19.18.46.66-.26,3.17.85,1.91,2.62-3-1.47-12.21-2.45-16.69-.32-1.46-1.85-5.35-1.67-4.4Z"/><path class="cls-7" d="M322.37,372.22c2,4.6,3.6,7.36,5.08,11.2.73,1.91,2,4.91,2,7,0,3.67-1.16.36-1.84-1.29-1.19-2.9-2.94-4.58-2.94-8.11,0-4-1-5.32-2.32-8.8Z"/><path class="cls-8" d="M378.22,353.35c1.82-1.2-1-.52.53.42.2.12.07.42.51.51,1,.2,3.26,1.59,2.05,2.81-.24.24-.28.8-.52,1s-1,.74-1,1.28-.86,2-1,.51c-.06-.45-.26-.5-.26-1,0-1.52-.87-2.21-1-3.59-.07-.57-.61-1.17.25-1.28s1.1,0,.5-.67Z"/><path class="cls-6" d="M379.05,360.77c-.43,0-.5-.63-.52-.83a1.15,1.15,0,0,0-.11-.38,1.47,1.47,0,0,1-.15-.67,4.35,4.35,0,0,0-.5-1.92,5.18,5.18,0,0,1-.52-1.64,3.89,3.89,0,0,0-.11-.43.92.92,0,0,1,0-.79.72.72,0,0,1,.59-.3l.42-.05.16,0-.09-.1h0l-.09-.1-.21-.23.19-.12a.63.63,0,0,1,.12-.37.82.82,0,0,1,.59-.33.27.27,0,0,1,.28.19c.06.19-.07.39-.47.68a1,1,0,0,0,.27.22.53.53,0,0,1,.22.3c.05.11.06.15.22.18a3.78,3.78,0,0,1,2.52,1.93,1.2,1.2,0,0,1-.36,1.26,1.33,1.33,0,0,0-.2.43,1.58,1.58,0,0,1-.31.59l-.2.18c-.27.24-.72.63-.76,1S379.56,360.77,379.05,360.77Zm-.36-6.69a1.17,1.17,0,0,1-.53.11l-.41.05c-.17,0-.26.06-.28.1s0,.26.08.43a2.54,2.54,0,0,1,.13.51,4.79,4.79,0,0,0,.49,1.51,4.91,4.91,0,0,1,.54,2.1,1,1,0,0,0,.11.49,1.59,1.59,0,0,1,.14.51,1,1,0,0,0,.11.43,1.85,1.85,0,0,0,.48-.95,2.34,2.34,0,0,1,.91-1.25,1.54,1.54,0,0,0,.18-.16,1.33,1.33,0,0,0,.2-.43,1.66,1.66,0,0,1,.31-.59.79.79,0,0,0,.25-.83,3.36,3.36,0,0,0-2.19-1.62A.64.64,0,0,1,378.69,354.08Z"/><path class="cls-8" d="M389.31,357.18c-1.38,3.84-.89,2.74-1.09,3s-.18-.08-.51.25-.28.79-.52,1-.8.25.26.25h4.86c.38,0,.52.18.52-.25s-.57-.31-.77-.52a3.51,3.51,0,0,1-.51-.51c-.38-.46-.9-.34-1-.77a4.89,4.89,0,0,0-.25-.51c-1.18-.95-.48,1-1-2Z"/><path class="cls-6" d="M392.68,362l-.15,0-.22,0h-5.68l-.1-.35.2-.1a.78.78,0,0,0,.31-.2,1.33,1.33,0,0,0,.2-.43,1.58,1.58,0,0,1,.31-.59.55.55,0,0,1,.38-.21H388l0,0,.06-.06c.18-.57.51-1.53,1-2.87l.29-.8.13.84c.13.8.18,1.25.2,1.49a1.26,1.26,0,0,1,.68.34,2.51,2.51,0,0,1,.33.62c0,.11.11.15.32.24a1.61,1.61,0,0,1,.67.46,2.81,2.81,0,0,0,.29.3l.2.19a.76.76,0,0,0,.25.1c.22.06.59.17.59.57a.62.62,0,0,1-.07.34A.32.32,0,0,1,392.68,362Zm-5.23-.48h4.86a1.84,1.84,0,0,1,.28,0h0v-.06c0-.06,0-.09-.27-.15a1.06,1.06,0,0,1-.44-.21l-.18-.18a2.86,2.86,0,0,1-.35-.35,1,1,0,0,0-.49-.32.86.86,0,0,1-.57-.52,3.74,3.74,0,0,0-.22-.45.74.74,0,0,0-.39-.2.27.27,0,0,1-.17.07c-.22,0-.23-.22-.24-.31s0-.34-.07-.75c-.33.93-.57,1.61-.7,2.05a.31.31,0,0,1-.17.22.41.41,0,0,1-.31.17l-.11,0-.07.08a1.33,1.33,0,0,0-.2.43,2,2,0,0,1-.22.47Z"/><path class="cls-8" d="M424.27,423.93a56.25,56.25,0,0,1,10,7.14c1.28,1.08,7.8,5.08,7.88,5.94.19,2.09-5.64-1-6.24-1.48-2.48-2.1-3.66-5.09-6.25-7.14-1.19-.95-4.58-2.84-5.35-4.46Z"/><path class="cls-6" d="M441.31,438c-1.67,0-5.16-1.89-5.58-2.25a19,19,0,0,1-3-3.49,18.46,18.46,0,0,0-3.22-3.65c-.31-.24-.77-.55-1.29-.9-1.49-1-3.53-2.39-4.13-3.63l-.27-.58.57.29a57.05,57.05,0,0,1,10,7.16c.43.36,1.47,1.06,2.66,1.88,3.62,2.45,5.25,3.64,5.3,4.22a.88.88,0,0,1-.19.67A1.07,1.07,0,0,1,441.31,438ZM425,424.54a19.53,19.53,0,0,0,3.49,2.75c.54.37,1,.68,1.32.93a18.34,18.34,0,0,1,3.3,3.73,18.62,18.62,0,0,0,2.95,3.41c.39.34,3.76,2.16,5.3,2.16a.69.69,0,0,0,.51-.15.43.43,0,0,0,.07-.34c-.08-.49-3.22-2.62-5.1-3.89-1.21-.82-2.25-1.53-2.7-1.9A61.26,61.26,0,0,0,425,424.54Z"/><path class="cls-8" d="M299.67,498.52c-3.91,0-8.49.9-11.74,2.94-1.1.69-6.32,3.57-6.25,4.22.16,1.52,4.06,1,5,.76,2.51-.73,6.15-4.53,8.54-6.13,1.62-1.08,1.9-1.66,4.47-1.79Z"/><path class="cls-8" d="M352.66,489.32c-.47,1.54-.78,1.09-1.52,1.83-1,1-.26,2.68,0,3.82.16.7,1.23,3,2,2.75,1.49-.58,1.68-4.51,1.68-6.11,0-.93.18-2-.3-2.6-.75-.93-1.47.69-1.84.31Z"/><path class="cls-8" d="M348.69,497.26a3.65,3.65,0,0,0,1.84,1.68c.22.13-1.89,1.5-2.29,1.83A14.67,14.67,0,0,1,346,502.3c-.45.19-1.23-1.45-1.23-1.84,0-1.56.17-1.54.92-2.29a4.41,4.41,0,0,1,3.05-.91Z"/><path class="cls-6" d="M345.87,502.53c-.64,0-1.37-1.65-1.37-2.07,0-1.43.15-1.63.77-2.23l.22-.21a4.64,4.64,0,0,1,3.2-1h.13l.07.12a3.14,3.14,0,0,0,1.58,1.49l.27.16,0,.14c0,.23-.21.44-1.75,1.53-.28.2-.53.37-.64.46A13.93,13.93,0,0,1,346,502.5.41.41,0,0,1,345.87,502.53Zm2.69-5a4.14,4.14,0,0,0-2.77.85l-.21.21c-.54.52-.64.62-.64,1.92,0,.36.66,1.61.92,1.63a13.72,13.72,0,0,0,2.24-1.49c.11-.09.36-.27.66-.48s1.18-.83,1.47-1.1A3.58,3.58,0,0,1,348.56,497.48Z"/><path class="cls-8" d="M461.5,623.49c-10,7.46-12.19,6.51-24,5.79a32.7,32.7,0,0,0-5.51,0c-1.17.13-2.75,3-1.65,3.58,6.83,3.86,31.41-1.68,31.13-9.37Z"/><path class="cls-6" d="M437.19,634.34h0a14.83,14.83,0,0,1-6.93-1.29,1.18,1.18,0,0,1-.44-1.36c.22-1.1,1.27-2.53,2.18-2.63a20.1,20.1,0,0,1,2.36-.11c.91,0,1.92,0,3.19.11l3,.19c2.34.16,4.19.29,5.87.29,5.18,0,8.4-1.34,15-6.23l.33-.25,0,.42a5.09,5.09,0,0,1-1.66,3.66C455.9,631.45,444.88,634.34,437.19,634.34Zm-2.83-5a21.53,21.53,0,0,0-2.31.11c-.65.08-1.59,1.27-1.8,2.28-.06.32-.07.73.22.9a14.5,14.5,0,0,0,6.72,1.23h0c7.6,0,18.47-2.84,22.55-7.07a4.87,4.87,0,0,0,1.53-2.9c-6.43,4.74-9.68,6-14.88,6-1.7,0-3.55-.12-5.9-.28l-3-.2C436.26,629.42,435.26,629.38,434.36,629.38Z"/><path class="cls-8" d="M436.43,621.29c-.65,0-3.78.63-2.76,1.65.77.77,12.05.5,13.78.27.15,0,.89-.49.55-.82s-5.85-.28-6.34-.28a16.52,16.52,0,0,1-3.3-.27c-.69-.27-1.18-.83-1.93-.55Z"/><path class="cls-6" d="M440.25,623.67c-6.16,0-6.59-.44-6.73-.58a.68.68,0,0,1-.22-.79c.34-.82,2.5-1.21,3.09-1.23a1.81,1.81,0,0,1,1.5.29,4,4,0,0,0,.55.27,15.66,15.66,0,0,0,3.22.26h1.66c4.49,0,4.72.24,4.84.35a.5.5,0,0,1,.12.52,1.32,1.32,0,0,1-.8.68C446.62,623.54,443.44,623.67,440.25,623.67Zm-3.82-2.17c-.57,0-2.51.44-2.73,1,0,0-.05.14.13.32s.62.45,6.42.45c3.08,0,6.33-.12,7.17-.23.08,0,.41-.24.45-.4a.08.08,0,0,0,0-.06c-.08,0-.67-.22-4.53-.22h-1.66a17.21,17.21,0,0,1-3.38-.29,4.77,4.77,0,0,1-.6-.29,1.33,1.33,0,0,0-1.17-.26Z"/><path class="cls-7" d="M431.49,657.33c-3.22,13.41-11.22,28.48-19.06,37.4,9.63-5.85,31.22-31.35,19.06-37.4Z"/><path class="cls-7" d="M430,657.3c-4.22,11.77-13.54,25.68-21.3,34.32,9.54-6.17,29.4-27.31,21.3-34.32Z"/><path class="cls-7" d="M428.44,657.26c-5.22,10.14-15.84,22.88-23.52,31.25,9.44-6.49,27.57-23.27,23.52-31.25Z"/><path class="cls-7" d="M426.92,657.23c-6.22,8.5-18.15,20.07-25.75,28.18,9.35-6.82,25.74-19.24,25.75-28.18Z"/><path class="cls-7" d="M425.39,657.2c-7.21,6.87-20.46,17.27-28,25.1,9.26-7.14,23.92-15.2,28-25.1Z"/><path class="cls-7" d="M466.51,675.53c-3.22,13.41-11.22,28.48-19.06,37.4,9.63-5.85,31.22-31.35,19.06-37.4Z"/><path class="cls-8" d="M391.11,779.05c10,0,16.23,4.38,30.1,3.48,2-.13,13.28,7.63,6.49,4.87-9.13-3.71-23.33-5.56-34.5-5.56-3.2,0-5-.17-7.18-1.4-4.42-2.49,5-1.39,5.09-1.39Z"/><path class="cls-8" d="M398.58,763.51c6.95-9.84,18.24-15.17,26.38-18.79-8.11.07-20.42,4.18-26.38,18.79Z"/><path class="cls-8" d="M401.6,765.07c7-8.91,18.37-13.63,26.49-17-8.14,0-20.37,3.35-26.49,17Z"/><path class="cls-8" d="M404.63,766.62c7-8,18.49-12.08,26.6-15.17-8.18-.07-20.33,2.53-26.6,15.17Z"/><path class="cls-8" d="M407.66,768.18c7-7,18.61-10.54,26.7-13.37-8.2-.14-20.28,1.72-26.7,13.37Z"/><path class="cls-8" d="M410.68,769.74c7.09-6.09,18.74-9,26.82-11.56-8.24-.21-20.24.89-26.82,11.56Z"/><path class="cls-8" d="M413.7,771.3c7.13-5.16,18.87-7.45,26.93-9.76-8.27-.28-20.2.07-26.93,9.76Z"/><path class="cls-8" d="M416.73,772.86c7.16-4.23,19-5.9,27-8-8.31-.35-20.16-.76-27,8Z"/><path class="cls-8" d="M419.75,774.41c7.2-3.28,19.12-4.35,27.15-6.14-8.34-.42-20.11-1.58-27.15,6.14Z"/><path class="cls-8" d="M422.78,776c7.24-2.35,19.24-2.81,27.26-4.34-8.37-.48-20.07-2.4-27.26,4.34Z"/><path class="cls-8" d="M425.81,777.53c7.27-1.42,19.36-1.26,27.36-2.53-8.4-.56-20-3.23-27.36,2.53Z"/><path class="cls-8" d="M428.83,779.09c7.31-.48,19.49.28,27.48-.73-8.44-.62-20-4.05-27.48.73Z"/><path class="cls-8" d="M319.89,684.46c6.43,4.06,16.84,7.53,23.6,8.86.8-1.31.22-2.36,1.3-3-8,.75-15.84-2.56-24.9-5.85Z"/><path class="cls-8" d="M317.46,689c5.88,3.76,15.5,6.8,21.77,7.87.79-1.31.28-2.33,1.32-3-7.51,1-14.73-2-23.09-4.88Z"/><path class="cls-8" d="M315,693.53c5.32,3.45,14.14,6.06,19.93,6.87.79-1.31.36-2.29,1.35-3-7,1.27-13.62-1.36-21.28-3.89Z"/><path class="cls-8" d="M312.59,698.06c4.77,3.15,12.8,5.33,18.11,5.88.79-1.32.43-2.25,1.37-3-6.53,1.54-12.51-.76-19.48-2.91Z"/><path class="cls-8" d="M310.16,702.59c4.21,2.85,11.46,4.61,16.28,4.89.78-1.32.5-2.21,1.39-3-6,1.81-11.4-.16-17.67-1.93Z"/><path class="cls-8" d="M307.73,707.12c3.65,2.55,10.1,3.88,14.45,3.9.77-1.32.56-2.18,1.41-2.95-5.55,2.07-10.29.45-15.86-1Z"/><path class="cls-8" d="M305.29,711.66c3.1,2.25,8.76,3.14,12.63,2.9.76-1.32.63-2.14,1.43-2.94-5.06,2.34-9.19,1-14.06,0Z"/><path class="cls-7" d="M340.35,577.35c6.95-11.31,18.24-19,26.38-24.38-9.68.21-19.54,4.32-26.38,24.38Z"/><path class="cls-7" d="M340.65,583.12c6.81-11,17.73-18.69,25.69-23.93-9.57.34-19.28,4.58-25.69,23.93Z"/><path class="cls-7" d="M340.94,588.89c6.68-10.63,17.22-18.34,25-23.48-9.46.47-19,4.84-25,23.48Z"/><path class="cls-7" d="M341.24,594.66c6.54-10.29,16.71-18,24.32-23-9.36.6-18.78,5.11-24.32,23Z"/><path class="cls-7" d="M341.53,600.43c6.41-10,16.2-17.64,23.64-22.59-9.25.74-18.53,5.38-23.64,22.59Z"/><path class="cls-7" d="M341.83,606.2c6.26-9.62,15.69-17.29,22.95-22.14-9.14.87-18.27,5.65-22.95,22.14Z"/><path class="cls-7" d="M342.12,612c6.13-9.28,15.18-16.94,22.27-21.69-9,1-18,5.91-22.27,21.69Z"/><path class="cls-7" d="M342.42,617.74A83,83,0,0,1,364,596.5c-8.93,1.13-17.77,6.17-21.58,21.24Z"/><path class="cls-7" d="M342.71,623.51a83.57,83.57,0,0,1,20.9-20.8c-8.82,1.27-17.52,6.45-20.9,20.8Z"/><path class="cls-7" d="M343,629.27a84.24,84.24,0,0,1,20.21-20.34c-8.71,1.4-17.26,6.71-20.21,20.34Z"/><path class="cls-7" d="M343.3,635c5.59-7.91,13.14-15.53,19.53-19.89-8.6,1.53-17,7-19.53,19.89Z"/><path class="cls-7" d="M343.6,640.81c5.45-7.57,12.63-15.18,18.84-19.45-8.5,1.67-16.76,7.25-18.84,19.45Z"/><path class="cls-7" d="M343.89,646.58c5.32-7.23,12.12-14.83,18.16-19-8.39,1.8-16.51,7.52-18.16,19Z"/><path class="cls-7" d="M344.19,652.35c5.18-6.9,11.6-14.48,17.47-18.55-8.28,1.93-16.26,7.78-17.47,18.55Z"/><path class="cls-7" d="M344.48,658.12c5-6.56,11.1-14.13,16.79-18.1-8.17,2.06-16,8-16.79,18.1Z"/><path class="cls-7" d="M344.78,663.89c4.91-6.22,10.58-13.78,16.09-17.65-8.06,2.19-15.74,8.31-16.09,17.65Z"/><path class="cls-7" d="M401.67,562.73c1.05-13.24,7.6-25.25,12.42-33.7-8.52,4.58-15.44,12.71-12.42,33.7Z"/><path class="cls-7" d="M404.78,566c1.07-12.93,7.08-24.64,11.81-32.95-8.3,4.87-14.88,12.66-11.81,32.95Z"/><path class="cls-7" d="M407.88,569.33c1.11-12.63,6.58-24,11.21-32.19-8.08,5.14-14.33,12.6-11.21,32.19Z"/><path class="cls-7" d="M411,572.63c1.13-12.32,6.06-23.4,10.6-31.43-7.86,5.42-13.77,12.53-10.6,31.43Z"/><path class="cls-7" d="M414.1,575.93a79,79,0,0,1,10-30.67c-7.64,5.7-13.22,12.47-10,30.67Z"/><path class="cls-7" d="M417.2,579.23a78.24,78.24,0,0,1,9.39-29.91c-7.42,6-12.66,12.4-9.39,29.91Z"/><path class="cls-7" d="M420.31,582.54a77.14,77.14,0,0,1,8.78-29.16c-7.2,6.25-12.11,12.34-8.78,29.16Z"/><path class="cls-7" d="M423.41,585.84c1.24-11.11,4-20.93,8.18-28.41-7,6.54-11.55,12.29-8.18,28.41Z"/><path class="cls-7" d="M426.52,589.14c1.27-10.81,3.49-20.31,7.57-27.65-6.76,6.82-11,12.22-7.57,27.65Z"/><path class="cls-7" d="M429.62,592.44c1.3-10.5,3-19.69,7-26.89-6.54,7.09-10.45,12.16-7,26.89Z"/><path class="cls-7" d="M432.73,595.74c1.32-10.2,2.46-19.07,6.35-26.13-6.31,7.37-9.88,12.09-6.35,26.13Z"/><path class="cls-7" d="M435.83,599c1.36-9.89,1.95-18.45,5.75-25.37-6.09,7.65-9.33,12-5.75,25.37Z"/><path class="cls-7" d="M438.94,602.34c1.38-9.59,1.44-17.83,5.14-24.61-5.87,7.92-8.77,12-5.14,24.61Z"/><path class="cls-7" d="M442,605.65c1.41-9.29.93-17.22,4.54-23.87-5.65,8.21-8.22,11.91-4.54,23.87Z"/><path class="cls-7" d="M445.15,609c1.44-9,.41-16.6,3.93-23.11-5.43,8.49-7.66,11.85-3.93,23.11Z"/><path class="cls-7" d="M448.26,612.25c1.46-8.68-.11-16,3.32-22.35-5.21,8.76-7.11,11.78-3.32,22.35Z"/><path class="cls-7" d="M451.36,615.55c1.49-8.38-.62-15.36,2.72-21.59-5,9-6.55,11.72-2.72,21.59Z"/><path class="cls-7" d="M454.47,618.85c1.52-8.07-1.14-14.74,2.11-20.83-4.77,9.32-6,11.66-2.11,20.83Z"/><path class="cls-7" d="M457.57,622.16c1.55-7.78-1.64-14.13,1.51-20.08-4.55,9.6-5.44,11.59-1.51,20.08Z"/><path class="cls-7" d="M235.16,402.65c8.64-4.4,22.26-5.48,38.52,9.91-5.4-11-23.86-22.23-33.16-18.27-2.37,1-3.2,6.08-5.36,8.36Z"/><path class="cls-7" d="M427.28,412.09c4.59,0,9-.63,13.55-.63,1.9,0,6.28-.49,7.56.31,3.2,2-8.07,2-9.14,1.9-3.24-.38-7.92-1-12-1.58Z"/><path class="cls-7" d="M250.24,290.48C267,277.82,291.92,266,309.82,257.75c-20,4.79-41.18,12.89-59.58,32.73Z"/><path class="cls-7" d="M250.39,295.14c17.94-16.31,43-28.13,62.22-36.14-24.38,5.94-45.07,15.56-62.22,36.14Z"/><path class="cls-7" d="M250.55,299.8c19.13-20,44.31-31.82,64.85-39.54-28.77,7.07-49,18.22-64.85,39.54Z"/><path class="cls-7" d="M250.7,304.47c20.34-23.63,45.63-35.52,67.48-43-33.15,8.2-52.84,20.88-67.48,43Z"/><path class="cls-7" d="M250.85,309.13c21.54-27.28,47-39.21,70.12-46.36-37.54,9.34-56.74,23.55-70.12,46.36Z"/><path class="cls-7" d="M389.68,382.48c9.85-9.8,11.13-8.45,19.53-11.11-8.34,1.9-12.09-6.32-19.53,11.11Z"/><path class="cls-7" d="M392,385.17c9.73-9.81,11.67-8.62,20.64-11.12-8.78,1.6-13.4-6.06-20.64,11.12Z"/><path class="cls-7" d="M394.27,387.85c9.61-9.82,12.21-8.78,21.75-11.11-9.24,1.28-14.71-5.81-21.75,11.11Z"/><path class="cls-7" d="M396.56,390.53c9.49-9.82,12.75-8.94,22.86-11.11-9.69,1-16-5.55-22.86,11.11Z"/><path class="cls-7" d="M398.85,393.22c9.37-9.84,13.3-9.11,24-11.11-10.14.66-17.31-5.3-24,11.11Z"/><path class="cls-7" d="M401.14,395.9c9.26-9.84,13.84-9.27,25.09-11.11-10.6.36-18.63-5-25.09,11.11Z"/><path class="cls-7" d="M403.44,398.58c9.13-9.85,14.38-9.43,26.19-11.1-11.05,0-19.93-4.79-26.19,11.1Z"/><path class="cls-7" d="M405.73,401.27c9-9.87,14.92-9.6,27.3-11.11-11.5-.26-21.23-4.53-27.3,11.11Z"/><path class="cls-7" d="M408,404c8.9-9.87,15.47-9.75,28.42-11.1-11.95-.57-22.54-4.29-28.42,11.1Z"/><path class="cls-7" d="M410.31,406.63c8.78-9.88,16-9.91,29.53-11.1-12.4-.88-23.85-4-29.53,11.1Z"/><path class="cls-7" d="M412.6,409.32c8.66-9.89,16.56-10.08,30.64-11.1-12.85-1.19-25.15-3.78-30.64,11.1Z"/><path class="cls-8" d="M411.79,404.19l8.75,4.09c2.59,6.64.81,10.35-1.12,14-3.1-3.3-4.7-3.44-8.3-.77-4,5-4.16,7.74-8.85,11.09-1.61-.7-3.85-.71-5.46-1.42,9.44-6.08,13.49-14.44,15-27Z"/><path class="cls-8" d="M386.89,394.61c-.5,7-5,20.21,4.51,19.59,3.12,3.64,5.37,5.89,8.83,6.78,5.77-3.45,8.25-9.88,9.48-15.77-2.9-2.14-7-3.89-9.22-6q-1.1-9.1.38-25.91c-4,9.76-8.9,15.34-14,21.34Z"/><path class="cls-8" d="M376.91,366.34c8.89-3.42,15.59-2.95,21.4-.89,2.18,2.18.77,4.36,1.15,6.54.49,3.45-1.63,4.67-3.58,6l-3.72,9c-1.62,2-3,8.16-4.58,10.17-1.3-.18-2.39-2.87-3.74-3.19-4.39-1.06-8.95-2.67-13.2-3.26-1.63-1.19-1.24-4.14.89-6-1.75-1.54-1.32-3.6,1-6.16-1.21-1.79-2-2.48,1.92-6.67q-2.62-1,2.43-5.52Z"/><path class="cls-7" d="M376.36,371.38a5.9,5.9,0,0,1,2.9-.86c1.88,0,3.27-.55,5-.55,1.38,0,2.93-.17,4.07.92s-4.18.74-4.79.74c-2.19,0-4-.74-7.21-.25Z"/><path class="cls-6" d="M386.14,371.93c-.77,0-1.55,0-2.07-.06l-.5,0a18.16,18.16,0,0,1-2.33-.2,20.42,20.42,0,0,0-2.74-.22,13.82,13.82,0,0,0-2.11.16l-.52.08.31-.42a6,6,0,0,1,3.08-.94,15.43,15.43,0,0,0,2.56-.28,13.61,13.61,0,0,1,2.47-.28h1a4.32,4.32,0,0,1,3.22,1,.56.56,0,0,1,.22.63C388.62,371.65,388.22,371.93,386.14,371.93ZM378.5,371a21,21,0,0,1,2.8.23,17.38,17.38,0,0,0,2.27.19l.52,0c.52,0,1.29.07,2.05.07,2,0,2.18-.28,2.19-.3h0a1.14,1.14,0,0,0-.12-.15,4,4,0,0,0-2.92-.87h-1a13.25,13.25,0,0,0-2.39.27,15.16,15.16,0,0,1-2.64.28,5.64,5.64,0,0,0-1.57.28Z"/><path class="cls-7" d="M375.29,377.89c2.11-.86,4-.73,6.26-.73.8,0,2.66-.13,2.76.73s-1.47.56-2.21.56c-1.63,0-3.28-.19-5-.19h-1.84c-1.1,0-.45-.58,0-.37Z"/><path class="cls-7" d="M374.19,384.16c1.85,0,3.63-.19,5.52-.19.53,0,.91.07,1.1.37a4.53,4.53,0,0,1,.37,1.11c-.26.26-4.54-.37-5.15-.37a11.23,11.23,0,0,1-2.58-.19c-1.12-.7.62-.55.74-.73Z"/><path class="cls-7" d="M234.93,407.1c8.2-4.46,21.27-5.83,37.3,8.56-5.48-10.48-23.51-20.78-32.35-16.74-2.26,1-2.93,5.93-4.95,8.18Z"/><path class="cls-7" d="M234.7,411.54c7.76-4.5,20.28-6.18,36.08,7.22-5.55-9.92-23.16-19.34-31.55-15.21-2.14,1.05-2.65,5.78-4.53,8Z"/><path class="cls-7" d="M234.47,416c7.32-4.55,19.3-6.53,34.86,5.87-5.62-9.37-22.81-17.89-30.74-13.68-2,1.07-2.38,5.63-4.12,7.81Z"/><path class="cls-7" d="M234.24,420.44c6.88-4.6,18.31-6.89,33.64,4.52-5.69-8.81-22.46-16.44-29.94-12.15-1.9,1.09-2.1,5.48-3.7,7.63Z"/><path class="cls-7" d="M234,424.88c6.44-4.65,17.32-7.23,32.42,3.17-5.76-8.24-22.11-15-29.13-10.61-1.79,1.12-1.83,5.33-3.29,7.44Z"/><path class="cls-7" d="M233.78,429.33c6-4.7,16.33-7.59,31.2,1.82-5.84-7.69-21.76-13.53-28.33-9.08-1.67,1.14-1.55,5.18-2.87,7.26Z"/><path class="cls-7" d="M233.55,433.78c5.56-4.75,15.35-7.94,30,.47-5.91-7.13-21.4-12.08-27.52-7.55-1.56,1.16-1.28,5-2.46,7.08Z"/><path class="cls-7" d="M233.32,438.22c5.12-4.8,14.36-8.28,28.76-.87-6-6.58-21-10.64-26.71-6-1.45,1.17-1,4.87-2.05,6.88Z"/><path class="cls-7" d="M233.09,442.67c4.68-4.85,13.37-8.64,27.53-2.22-6-6-20.69-9.19-25.9-4.48-1.33,1.2-.72,4.72-1.63,6.7Z"/><path class="cls-7" d="M232.86,447.12c4.24-4.9,12.38-9,26.31-3.57-6.12-5.46-20.34-7.74-25.09-2.95-1.22,1.22-.45,4.57-1.22,6.52Z"/><path class="cls-7" d="M232.64,451.56c3.79-4.94,11.39-9.34,25.08-4.91-6.19-4.91-20-6.29-24.29-1.42-1.09,1.24-.17,4.41-.79,6.33Z"/><path class="cls-7" d="M232.41,456c3.35-5,10.4-9.69,23.86-6.27-6.26-4.34-19.64-4.83-23.48.12-1,1.26.1,4.26-.38,6.15Z"/><path class="cls-7" d="M232.18,460.46c2.91-5,9.41-10,22.64-7.62-6.33-3.78-19.29-3.38-22.68,1.65-.86,1.28.38,4.11,0,6Z"/><path class="cls-7" d="M232,464.9c2.47-5.09,8.42-10.39,21.42-9-6.41-3.23-18.94-1.94-21.87,3.18-.75,1.31.65,4,.45,5.78Z"/><path class="cls-7" d="M231.72,469.35c2-5.14,7.44-10.74,20.2-10.31-6.48-2.67-18.59-.49-21.07,4.71-.63,1.33.93,3.81.87,5.6Z"/><path class="cls-7" d="M231.49,473.8c1.59-5.2,6.45-11.1,19-11.66-6.54-2.11-18.23,1-20.25,6.24-.52,1.35,1.2,3.66,1.28,5.42Z"/><path class="cls-7" d="M334.93,340.78c.24,1.32-.73.5-.47,2.1a51.81,51.81,0,0,1,14.71,1.39c-9.54-2.48-9.65-3-14.24-3.49Z"/><path class="cls-7" d="M336.2,343.68c.24,1.32-.66.54-.41,2.14,5.15,0,8-.23,15,1.19-9.51-2.38-9.93-2.8-14.64-3.33Z"/><path class="cls-7" d="M337.45,346.59c.24,1.32-.59.58-.34,2.17,5.15,0,8.37-.29,15.38,1-9.48-2.28-10.2-2.61-15-3.17Z"/><path class="cls-7" d="M338.69,349.5c.23,1.32-.53.62-.28,2.22,5.14,0,8.7-.36,15.7.79-9.45-2.18-10.47-2.4-15.42-3Z"/><path class="cls-7" d="M339.88,352.43c.24,1.32-.46.66-.21,2.26,5.15,0,9-.44,16,.59a129.21,129.21,0,0,0-15.83-2.85Z"/><path class="cls-7" d="M341.05,355.38c.23,1.32-.4.7-.15,2.29,5.14,0,9.36-.5,16.37.39a144.84,144.84,0,0,0-16.22-2.68Z"/><path class="cls-7" d="M342.16,358.34c.23,1.32-.33.74-.08,2.33,5.14,0,9.69-.57,16.7.19-9.36-1.88-11.31-1.8-16.62-2.52Z"/><path class="cls-7" d="M343.22,361.32c.23,1.32-.27.78,0,2.38,5.14,0,10-.65,17,0-9.33-1.79-11.58-1.61-17-2.37Z"/><path class="cls-7" d="M344.2,364.33c.23,1.32-.19.82.05,2.41,5.15,0,10.36-.71,17.36-.21-9.29-1.68-11.85-1.4-17.41-2.2Z"/><path class="cls-7" d="M345.12,367.35c.22,1.33-.14.86.11,2.46,5.14,0,10.69-.79,17.69-.41-9.26-1.58-12.13-1.2-17.8-2Z"/><path class="cls-7" d="M346,370.4c.22,1.33-.07.9.17,2.5,5.15,0,11-.86,18-.61-9.24-1.49-12.41-1-18.2-1.89Z"/><path class="cls-7" d="M346.69,373.48c.23,1.32,0,.94.24,2.54,5.15,0,11.35-.93,18.36-.82-9.21-1.38-12.69-.8-18.6-1.72Z"/><path class="cls-7" d="M347.34,376.57c.22,1.32.06,1,.3,2.58,5.15,0,11.69-1,18.69-1-9.17-1.28-13-.6-19-1.56Z"/><path class="cls-7" d="M347.89,379.68c.22,1.32.13,1,.37,2.62,5.15,0,12-1.07,19-1.22-9.14-1.18-13.24-.4-19.39-1.4Z"/><path class="cls-7" d="M348.34,382.81c.22,1.32.2,1.06.44,2.65,5.14,0,12.34-1.14,19.35-1.41-9.12-1.09-13.52-.2-19.79-1.24Z"/><path class="cls-7" d="M348.7,385.94c.22,1.32.26,1.1.5,2.7,5.14,0,12.67-1.21,19.68-1.62-9.08-1-13.79,0-20.18-1.08Z"/><path class="cls-7" d="M349,389.09c.22,1.32.33,1.14.57,2.73,5.14,0,13-1.28,20-1.82-9.05-.88-14.06.21-20.58-.91Z"/><path class="cls-7" d="M349.14,392.23c.22,1.33.4,1.18.63,2.78,5.15,0,13.34-1.35,20.35-2-9-.78-14.34.41-21-.76Z"/><path class="cls-7" d="M349.25,395.38c.22,1.33.46,1.22.69,2.82,5.15,0,13.67-1.42,20.68-2.22-9-.68-14.62.61-21.37-.6Z"/><path class="cls-7" d="M349.28,398.54c.22,1.32.52,1.26.76,2.85,5.14,0,14-1.49,21-2.42-9-.59-14.89.81-21.76-.43Z"/><path class="cls-7" d="M349.24,401.68c.22,1.33.6,1.3.83,2.9,5.14,0,14.33-1.56,21.34-2.62-8.93-.49-15.17,1-22.17-.28Z"/><path class="cls-7" d="M349.15,404.83c.22,1.33.66,1.34.89,2.94,5.15,0,14.66-1.64,21.67-2.82-8.9-.39-15.45,1.2-22.56-.12Z"/><path class="cls-7" d="M349,408c.22,1.32.73,1.38,1,3,5.14,0,15-1.71,22-3-8.86-.29-15.72,1.41-22.95.05Z"/><path class="cls-7" d="M348.8,411.12c.21,1.32.79,1.42,1,3,5.14.05,15.33-1.78,22.33-3.23-8.84-.19-16,1.61-23.35.21Z"/><path class="cls-7" d="M348.56,414.25c.21,1.33.85,1.46,1.08,3.06,5.15.06,15.66-1.84,22.66-3.42-8.8-.09-16.27,1.8-23.74.36Z"/><path class="cls-7" d="M348.28,417.39c.21,1.32.92,1.49,1.15,3.09,5.14.06,16-1.91,23-3.62-8.78,0-16.55,2-24.14.53Z"/><path class="cls-7" d="M348,420.51c.21,1.33,1,1.54,1.21,3.14,5.15.06,16.32-2,23.33-3.82-8.75.11-16.83,2.2-24.54.68Z"/><path class="cls-7" d="M347.62,423.64c.21,1.32,1.05,1.58,1.28,3.18,5.14.06,16.65-2.06,23.65-4-8.71.21-17.1,2.41-24.93.85Z"/><path class="cls-7" d="M347.24,426.76c.21,1.32,1.12,1.62,1.35,3.22,5.14.07,17-2.13,24-4.23-8.68.31-17.37,2.61-25.33,1Z"/><path class="cls-7" d="M346.84,429.88c.21,1.32,1.19,1.65,1.42,3.26,5.14.07,17.31-2.21,24.31-4.44-8.65.41-17.65,2.81-25.73,1.18Z"/><path class="cls-8" d="M323,330.24c7.46,5.67,15.69,10.56,23.15,16.23q-11.65-2.43-17.86,4.24c.56-10-1.76-16.16-6-19.69l.76-.78Z"/><path class="cls-8" d="M267,365.1c-9.13,8.36-13.27,14.77-15.14,20.3,11.34,3.72,21.36,11.64,30.27,23,8.64,18.68,11.76,40.94,10.7,56,1.09-4.24,2.59-18.8,11.14-16.32-7.86-13.77-11.31-20.6-18.36-40.88,9.4-8.9,19.87-14.58,30.88-18.63l9.68,13.63L324,404c8.63,12.64,14.33,24.17,16.5,34.39l-8.93,7.73c-11.39,19.36-13,26.25-11.05,28.63q5.54.3,12.26-6.67c3.08-4.29,1.11-6.92-1.06-11.21,5-3.91,9.59-1,11.35,4.85q5.61-14,11.2-28-4.85-16.89-20.58-33.78c-8.9-11.06-23.73-22.12-40.71-33.18-7.32.5-14.28,4.19-21.19,8.33-1.26-2.27-2.77-5.3-4.84-10Z"/><path class="cls-7" d="M252.68,385.86c1.29.34.14.87,1.7,1.31a52.15,52.15,0,0,1,7.46-12.75c-6.72,6.56-6.79,7.48-9.16,11.44Z"/><path class="cls-7" d="M255.67,387.19c1.28.36.18.92,1.71,1.39A53.29,53.29,0,0,1,265.22,376c-6.76,6.34-7,7.25-9.55,11.18Z"/><path class="cls-7" d="M258.51,388.77c1.27.39.22,1,1.74,1.47a53.81,53.81,0,0,1,8.21-12.38c-6.81,6.12-7.18,7-9.95,10.91Z"/><path class="cls-7" d="M261.21,390.57c1.25.41.25,1,1.75,1.54a55.74,55.74,0,0,1,8.58-12.19c-6.85,5.9-7.36,6.79-10.33,10.65Z"/><path class="cls-7" d="M263.75,392.56c1.23.44.29,1.07,1.76,1.63,2.47-4.39,4.35-6.94,9-12-6.9,5.68-7.56,6.55-10.72,10.38Z"/><path class="cls-7" d="M266.14,394.72c1.22.46.32,1.12,1.78,1.7,2.54-4.31,4.66-6.91,9.33-11.81-6.94,5.45-7.75,6.31-11.11,10.11Z"/><path class="cls-7" d="M268.38,397c1.21.48.36,1.17,1.8,1.78,2.62-4.24,5-6.88,9.7-11.63-7,5.24-7.94,6.09-11.5,9.85Z"/><path class="cls-7" d="M270.48,399.44c1.19.51.39,1.22,1.81,1.86,2.7-4.17,5.28-6.85,10.08-11.44-7,5-8.14,5.85-11.89,9.58Z"/><path class="cls-7" d="M272.44,402c1.17.53.42,1.27,1.83,1.94,2.78-4.1,5.59-6.83,10.45-11.25-7.08,4.79-8.33,5.61-12.28,9.31Z"/><path class="cls-7" d="M274.27,404.58c1.16.56.46,1.32,1.85,2,2.86-4,5.9-6.8,10.82-11.07-7.12,4.57-8.51,5.39-12.67,9.05Z"/><path class="cls-7" d="M276,407.27c1.15.58.5,1.37,1.86,2.09,2.94-3.95,6.21-6.77,11.2-10.87-7.17,4.34-8.71,5.15-13.06,8.78Z"/><path class="cls-7" d="M277.6,410c1.13.6.53,1.41,1.88,2.17,3-3.88,6.52-6.74,11.57-10.69-7.22,4.13-8.9,4.92-13.45,8.52Z"/><path class="cls-7" d="M279.1,412.82c1.11.63.56,1.47,1.89,2.25,3.1-3.81,6.83-6.71,11.95-10.5-7.26,3.91-9.09,4.68-13.84,8.25Z"/><path class="cls-7" d="M280.49,415.67c1.1.65.6,1.52,1.91,2.33,3.18-3.73,7.14-6.68,12.32-10.31-7.3,3.68-9.28,4.45-14.23,8Z"/><path class="cls-7" d="M281.79,418.57c1.09.67.64,1.57,1.93,2.4,3.26-3.66,7.45-6.65,12.69-10.12-7.35,3.46-9.47,4.22-14.62,7.72Z"/><path class="cls-7" d="M283,421.5c1.07.7.67,1.62,1.95,2.48,3.33-3.59,7.75-6.63,13.06-9.93-7.4,3.24-9.66,4-15,7.45Z"/><path class="cls-7" d="M284.13,424.46c1.05.73.7,1.67,2,2.56,3.42-3.51,8.06-6.6,13.43-9.74-7.44,3-9.85,3.75-15.39,7.18Z"/><path class="cls-7" d="M285.17,427.45c1,.75.74,1.72,2,2.64,3.5-3.44,8.37-6.57,13.81-9.56-7.49,2.8-10,3.52-15.79,6.92Z"/><path class="cls-7" d="M286.14,430.47c1,.77.77,1.76,2,2.71,3.58-3.37,8.69-6.54,14.18-9.37-7.53,2.58-10.23,3.29-16.17,6.66Z"/><path class="cls-7" d="M287,433.5c1,.8.81,1.82,2,2.8a63.76,63.76,0,0,1,14.55-9.18c-7.57,2.35-10.42,3.05-16.56,6.38Z"/><path class="cls-7" d="M287.84,436.56c1,.82.84,1.86,2,2.87a63.64,63.64,0,0,1,14.92-9c-7.61,2.13-10.62,2.82-17,6.12Z"/><path class="cls-7" d="M288.58,439.63c1,.84.87,1.92,2,2.95a63.75,63.75,0,0,1,15.31-8.8c-7.67,1.91-10.81,2.58-17.34,5.85Z"/><path class="cls-7" d="M289.25,442.72c1,.87.91,2,2.05,3A64.13,64.13,0,0,1,307,437.13c-7.7,1.69-11,2.35-17.72,5.59Z"/><path class="cls-7" d="M289.85,445.82c.95.89.95,2,2.07,3.11A63.92,63.92,0,0,1,308,440.5c-7.75,1.47-11.2,2.12-18.12,5.32Z"/><path class="cls-7" d="M290.39,448.94c.94.91,1,2.06,2.09,3.18a63.5,63.5,0,0,1,16.42-8.24c-7.8,1.24-11.39,1.88-18.51,5.06Z"/><path class="cls-7" d="M290.86,452.06c.92.93,1,2.11,2.1,3.26a63.64,63.64,0,0,1,16.8-8.05c-7.85,1-11.58,1.65-18.9,4.79Z"/><path class="cls-7" d="M291.26,455.19c.9,1,1.05,2.16,2.12,3.34a63.65,63.65,0,0,1,17.16-7.87c-7.88.8-11.76,1.42-19.28,4.53Z"/><path class="cls-7" d="M291.6,458.33c.89,1,1.08,2.21,2.13,3.41,4.3-2.71,11.48-6.29,17.54-7.67-7.93.58-11.95,1.18-19.67,4.26Z"/><path class="cls-7" d="M291.89,461.47c.87,1,1.12,2.26,2.15,3.49,4.37-2.64,11.78-6.26,17.91-7.49-8,.36-12.15.95-20.06,4Z"/><path class="cls-7" d="M292.11,464.62c.85,1,1.15,2.31,2.16,3.57,4.46-2.57,12.1-6.23,18.29-7.3-8,.13-12.34.71-20.45,3.73Z"/><path class="cls-8" d="M288.77,407.22c5.34-6.25,14.74-11.78,26.94-16.82l8.17,11.06c-3.71,1-10.65,5.07-26.48,17.43-2.17-3.44-2.68-7.48-4.85-10.91-.7-.46-3.07-.31-3.78-.76Z"/><path class="cls-8" d="M325.85,409.49c6.83,9.9,12.15,19.45,12.11,27.73-11.07,10.35-17.69,13.58-22.7,14.24-6.16-4.23-10.2-13.78-13.93-24.09,6.84-9.64,14.46-17.13,24.52-17.88Z"/><path class="cls-7" d="M294.19,405.61c.81,1.07-.42.78.53,2.08,4.65-2.86,14.07-11.86,21-13.68-9.34,1.05-17.24,9.94-21.54,11.6Z"/><path class="cls-7" d="M320.21,447.63c-1.32-.25-.5.72-2.1.45,6.72-8.33,10.54-26.11,9.05-33.13,3.26,8.81.37,28.85-7,32.68Z"/><path class="cls-7" d="M311.93,444.62c-.65-.49-.47.26-1.26-.31,5.86-2.75,12.65-11.41,13.7-15.62-.57,5.65-7.45,15.78-12.44,15.93Z"/><path class="cls-8" d="M358.17,379.17c3.4-.78,8.27-2.64,12.16-3.22-2,3-2.64,6.58-1,7.88-.47,2-1.86,6.05.13,7.53-2.61.62-5.84.12-8.45.74,1.34-4.31.12-8.62-2.85-12.93Z"/><path class="cls-8" d="M367.4,418.86c3-8.06,5.25-14.33,8.21-22.4h6c-1.89,6.26-6.06,12.44,3.22,19.05a9.68,9.68,0,0,1,9,4.37l.78,6.57q-14.34,5.79-22,4.37c-3.47-5.87-4.18-10.06-5.25-12Z"/><path class="cls-8" d="M339.67,354.69c3.51,18.39,6.64,37.82,5.82,53.41,1.18,2.44,2.36,4.87,3.53,7.31a229.16,229.16,0,0,0-9.35-60.72Z"/><path class="cls-6" d="M349.26,416.4l-4-8.25v-.06c.83-15.81-2.47-35.85-5.81-53.36l-.82-4.29,1.24,4.19a228.5,228.5,0,0,1,9.36,60.77Zm-3.55-8.34,3.07,6.35a228.9,228.9,0,0,0-8-55.11C343.78,375.64,346.46,393.59,345.71,408.06Z"/><path class="cls-7" d="M355.89,437c6.34-1.58,11.28-3.4,15.26-5.83-6,1.76-11.44,2-17.07,3.16l1.81,2.67Z"/><path class="cls-7" d="M356.38,439.47c6.34-1.58,11.28-3.4,15.26-5.83-5.93,1.7-11.39,2.1-17,3.23.59.87,1.17,1.74,1.76,2.6Z"/><path class="cls-7" d="M356.88,442c6.33-1.58,11.27-3.4,15.25-5.83-5.91,1.63-11.35,2.16-17,3.29l1.73,2.54Z"/><path class="cls-7" d="M357.37,444.51c6.33-1.58,11.27-3.4,15.25-5.83-5.89,1.55-11.3,2.22-16.93,3.35l1.68,2.48Z"/><path class="cls-7" d="M357.86,447c6.33-1.58,11.28-3.4,15.25-5.83-5.86,1.49-11.25,2.28-16.89,3.42l1.64,2.41Z"/><path class="cls-7" d="M358.35,449.54c6.34-1.58,11.28-3.4,15.26-5.83-5.85,1.42-11.22,2.34-16.85,3.48l1.59,2.35Z"/><path class="cls-7" d="M358.84,452.05c6.34-1.57,11.28-3.39,15.26-5.82-5.83,1.34-11.17,2.4-16.81,3.54l1.55,2.28Z"/><path class="cls-7" d="M359.33,454.57c6.34-1.58,11.28-3.4,15.26-5.83-5.81,1.28-11.13,2.47-16.76,3.61l1.5,2.22Z"/><path class="cls-7" d="M359.83,457.09c6.33-1.58,11.27-3.4,15.25-5.83-5.78,1.21-11.08,2.53-16.72,3.67l1.47,2.16Z"/><path class="cls-7" d="M360.32,459.6c6.33-1.58,11.28-3.4,15.25-5.83-5.76,1.14-11,2.6-16.67,3.74l1.42,2.09Z"/><path class="cls-7" d="M360.81,462.12c6.34-1.58,11.28-3.4,15.25-5.83-5.74,1.07-11,2.66-16.63,3.8l1.38,2Z"/><path class="cls-7" d="M361.3,464.64c6.34-1.58,11.28-3.4,15.26-5.83-5.73,1-11,2.72-16.59,3.86l1.33,2Z"/><path class="cls-7" d="M361.79,467.15c6.34-1.58,11.28-3.4,15.26-5.83-5.7.93-10.91,2.79-16.55,3.93l1.29,1.9Z"/><path class="cls-7" d="M362.29,469.67c6.33-1.58,11.27-3.4,15.25-5.83-5.68.86-10.87,2.85-16.5,4l1.25,1.84Z"/><path class="cls-7" d="M362.78,472.18c6.33-1.58,11.28-3.39,15.25-5.83-5.66.8-10.82,2.92-16.46,4.06l1.21,1.77Z"/><path class="cls-7" d="M363.27,474.7c6.34-1.58,11.28-3.4,15.25-5.83-5.63.72-10.78,3-16.41,4.12l1.16,1.71Z"/><path class="cls-7" d="M363.76,477.22c6.34-1.58,11.28-3.4,15.26-5.83-5.62.65-10.74,3-16.38,4.18l1.12,1.65Z"/><path class="cls-7" d="M364.25,479.73c6.34-1.58,11.28-3.4,15.26-5.83-5.6.59-10.7,3.11-16.33,4.25.36.52.72,1.05,1.07,1.58Z"/><path class="cls-7" d="M364.75,482.25c6.33-1.58,11.27-3.4,15.25-5.83-5.58.52-10.65,3.17-16.29,4.3l1,1.53Z"/><path class="cls-7" d="M365.24,484.76c6.33-1.58,11.28-3.39,15.25-5.83-5.55.45-10.61,3.24-16.24,4.37l1,1.46Z"/><path class="cls-7" d="M365.73,487.28c6.34-1.58,11.28-3.4,15.25-5.83-5.53.38-10.56,3.3-16.2,4.43l1,1.4Z"/><path class="cls-7" d="M366.22,489.8c6.34-1.58,11.28-3.4,15.26-5.83-5.52.31-10.53,3.36-16.16,4.49l.9,1.34Z"/><path class="cls-8" d="M358.68,443.77c6.44,13.55,9.32,29.79,11.13,47.31-5.83,2.08-7.11,3.77-12.94,5.84.13-2,.39-5.48.52-7.52,4.45-1.83,1.87-6,1.42-9.46q2.4-3.57-1.42-7.13l-1.17-7.65c-1.9-1.34.09-4.88-3-7.13,2-4.32,3.41-9.94,5.44-14.26Z"/><path class="cls-7" d="M366.56,405.81l4.55-13.23L385,395.16l-.57,16.89,8.54,5.18,4.7,6.62c-10.38,9.53-27.26-5.64-31.14-18Z"/><path class="cls-8" d="M360.61,395.8c3.18-.29,6.93-1.93,8.19.4l-4.93,13.22q-1.64-6.81-3.26-13.62Z"/><path class="cls-7" d="M314.41,458.89c5.46-3.58,24.41-14.82,27.36-18.43-7.32,5.68-24.88,14.08-29.82,17l2.46,1.42Z"/><path class="cls-7" d="M315.31,461.14c5.5-3.48,23.78-14.28,26.78-17.83-7.24,5.42-24.19,13.57-29.17,16.42l2.39,1.41Z"/><path class="cls-7" d="M316.2,463.4c5.55-3.39,23.16-13.74,26.21-17.24-7.15,5.17-23.51,13.06-28.52,15.82l2.31,1.42Z"/><path class="cls-7" d="M317.1,465.64c5.58-3.29,22.53-13.19,25.63-16.63-7.06,4.91-22.83,12.55-27.87,15.23l2.24,1.4Z"/><path class="cls-7" d="M318,467.9c5.62-3.2,21.9-12.65,25.05-16-7,4.66-22.14,12-27.22,14.63L318,467.9Z"/><path class="cls-7" d="M318.89,470.15c5.67-3.11,21.28-12.11,24.48-15.44-6.89,4.4-21.46,11.53-26.57,14l2.09,1.4Z"/><path class="cls-7" d="M319.79,472.4c5.71-3,20.65-11.56,23.9-14.83-6.81,4.14-20.78,11-25.92,13.43l2,1.4Z"/><path class="cls-7" d="M320.68,474.65c5.76-2.92,20-11,23.33-14.23-6.72,3.88-20.09,10.5-25.27,12.84.65.46,1.3.92,1.94,1.39Z"/><path class="cls-7" d="M321.58,476.9c5.79-2.82,19.41-10.48,22.75-13.63-6.63,3.63-19.41,10-24.62,12.24l1.87,1.39Z"/><path class="cls-7" d="M322.48,479.15c5.83-2.73,18.78-9.93,22.17-13-6.55,3.37-18.73,9.48-24,11.65l1.8,1.38Z"/><path class="cls-7" d="M323.37,481.4c5.88-2.63,18.16-9.39,21.6-12.43-6.46,3.12-18,9-23.32,11l1.72,1.38Z"/><path class="cls-7" d="M324.27,483.65c5.92-2.53,17.53-8.84,21-11.83-6.38,2.86-17.36,8.46-22.67,10.45l1.65,1.38Z"/><path class="cls-7" d="M325.17,485.9c6-2.44,16.9-8.3,20.44-11.23-6.29,2.61-16.68,7.95-22,9.86l1.58,1.37Z"/><path class="cls-7" d="M326.06,488.15c6-2.34,16.28-7.75,19.87-10.63-6.21,2.35-16,7.44-21.37,9.26l1.5,1.37Z"/><path class="cls-7" d="M327,490.4c6-2.25,15.65-7.21,19.29-10-6.12,2.1-15.31,6.93-20.72,8.67L327,490.4Z"/><path class="cls-7" d="M327.85,492.65c6.09-2.15,15-6.66,18.72-9.43-6,1.84-14.63,6.42-20.07,8.07l1.35,1.36Z"/><path class="cls-7" d="M328.75,494.9c6.13-2.06,14.4-6.12,18.14-8.83-5.95,1.59-13.95,5.91-19.41,7.48l1.27,1.35Z"/><path class="cls-7" d="M329.65,497.15c6.17-2,13.78-5.57,17.56-8.23-5.86,1.33-13.26,5.4-18.76,6.88l1.2,1.35Z"/><path class="cls-7" d="M330.54,499.4a70,70,0,0,0,17-7.63c-5.78,1.08-12.58,4.89-18.11,6.29l1.12,1.34Z"/><path class="cls-7" d="M331.44,501.65a64.65,64.65,0,0,0,16.41-7c-5.69.82-11.9,4.38-17.46,5.69l1.05,1.34Z"/><path class="cls-7" d="M332.34,503.9a59,59,0,0,0,15.83-6.43c-5.61.57-11.21,3.87-16.81,5.09.32.45.65.9,1,1.34Z"/><path class="cls-7" d="M333.23,506.15c6.34-1.58,11.28-3.4,15.25-5.83-5.51.31-10.52,3.36-16.15,4.5l.9,1.33Z"/><path class="cls-8" d="M322.07,479.34l27.39-19.09c3.8.3,3.34,2,2.27,3.93,7.37,3.54-.66,6.92,1.82,10.16.84,2,1.48,4.59-1.52,6.21,1.42,1.25.14,5.17-1.21,7l-4.08,4.39-14.53,8.48c-6.08,2.68-9.11.91-10.75-2.87q.3-9.11.61-18.18Z"/><path class="cls-8" d="M333.72,457.37c4.44-1.11,6.66,1.11,7.87,4.85L336.44,466q3.48-5.06-2.72-8.63Z"/><path class="cls-7" d="M253.08,492.66c2.55-6,4.59-10.45,12.68-15.78-7.67,2.41-13.35,11.49-15.83,16.68l3.15-.9Z"/><path class="cls-7" d="M254.62,493.93c2.55-6,4.6-10.44,12.68-15.77-7.67,2.41-13.35,11.49-15.83,16.67l3.15-.9Z"/><path class="cls-7" d="M256.17,495.21c2.54-6,4.59-10.45,12.68-15.78-7.68,2.41-13.35,11.49-15.83,16.67l3.15-.89Z"/><path class="cls-7" d="M257.71,496.48c2.54-6,4.59-10.45,12.68-15.78-7.68,2.41-13.35,11.49-15.83,16.68l3.15-.9Z"/><path class="cls-7" d="M259.25,497.75c2.55-6,4.59-10.45,12.68-15.78-7.67,2.42-13.35,11.49-15.83,16.68l3.15-.9Z"/><path class="cls-7" d="M260.79,499c2.55-6,4.6-10.45,12.68-15.78-7.67,2.41-13.34,11.49-15.82,16.67l3.14-.89Z"/><path class="cls-7" d="M262.34,500.3c2.54-6,4.59-10.45,12.68-15.78-7.68,2.41-13.35,11.49-15.83,16.67l3.15-.89Z"/><path class="cls-7" d="M263.88,501.57c2.55-6,4.59-10.45,12.68-15.78-7.68,2.41-13.35,11.49-15.83,16.68l3.15-.9Z"/><path class="cls-7" d="M265.42,502.85c2.55-6,4.6-10.45,12.68-15.78-7.67,2.41-13.35,11.49-15.83,16.67l3.15-.89Z"/><path class="cls-7" d="M267,504.12c2.55-6,4.6-10.45,12.69-15.78C272,490.75,266.3,499.83,263.82,505l3.14-.89Z"/><path class="cls-7" d="M268.51,505.39c2.54-6,4.59-10.45,12.68-15.78-7.68,2.41-13.35,11.49-15.83,16.68l3.15-.9Z"/><polygon class="cls-8" points="376.26 394.28 367.75 417.92 368.77 419.98 376.71 394.86 376.26 394.28 376.26 394.28"/><path class="cls-7" d="M359.83,689c7.61.07,9.81-1.21,16.26-3.63,0-1.53,1.12-3,1.7-4.07-6.41,4.83-8.53,5.73-18,7.7Z"/><path class="cls-7" d="M359.54,692.73c7.26.06,9.73-1.35,15.86-3.77,0-1.53,1-2.88,1.5-4-6.07,4.85-8.37,5.79-17.36,7.77Z"/><path class="cls-7" d="M359.25,696.46c6.92,0,9.65-1.48,15.46-3.91a9,9,0,0,1,1.29-3.92c-5.73,4.85-8.21,5.84-16.75,7.83Z"/><path class="cls-7" d="M359,700.19c6.58,0,9.57-1.61,15.07-4.05a8.64,8.64,0,0,1,1.08-3.84c-5.4,4.85-8.05,5.89-16.15,7.89Z"/><path class="cls-7" d="M358.67,703.92c6.23,0,9.49-1.75,14.67-4.19a8.65,8.65,0,0,1,.87-3.76c-5.06,4.86-7.89,5.94-15.54,7.95Z"/><path class="cls-7" d="M358.38,707.65c5.89,0,9.41-1.88,14.27-4.33a8.8,8.8,0,0,1,.66-3.68c-4.71,4.86-7.73,6-14.93,8Z"/><path class="cls-7" d="M358.09,711.38c5.55,0,9.33-2,13.88-4.46a8.75,8.75,0,0,1,.45-3.61c-4.38,4.87-7.57,6-14.33,8.07Z"/><path class="cls-7" d="M357.81,715.11c5.2,0,9.24-2.14,13.47-4.6a9.16,9.16,0,0,1,.24-3.53c-4,4.87-7.41,6.09-13.71,8.13Z"/><path class="cls-7" d="M357.52,718.84c4.85,0,9.16-2.28,13.07-4.74a9.57,9.57,0,0,1,0-3.45c-3.71,4.87-7.25,6.14-13.11,8.19Z"/><path class="cls-7" d="M357.23,722.57c4.51,0,9.07-2.41,12.68-4.88a10.31,10.31,0,0,1-.18-3.37c-3.36,4.88-7.09,6.19-12.5,8.25Z"/><path class="cls-7" d="M356.94,726.3c4.17,0,9-2.54,12.28-5-.16-1.52-.59-2.18-.38-3.29-3,4.88-6.93,6.24-11.9,8.31Z"/><path class="cls-7" d="M356.65,730c3.82,0,8.91-2.67,11.88-5.16-.17-1.52-.76-2.1-.59-3.21-2.69,4.88-6.77,6.29-11.29,8.37Z"/><path class="cls-7" d="M325.17,806.37c-4.53,3.37-5.09,2.44-7.82,6.75.69.91,3,.72,3.15,1.64,1.62-5.73,0-3,4.67-8.39Z"/><path class="cls-7" d="M324.58,803.09c-4.72,3.21-6.22,3.42-8.76,7.6.7.9,3,.72,3.18,1.63,1.42-5.59.92-4,5.58-9.23Z"/><path class="cls-7" d="M324,799.81c-4.91,3-7.34,4.4-9.69,8.45.7.89,3,.73,3.2,1.62,1.22-5.44,1.87-5.09,6.49-10.07Z"/><path class="cls-7" d="M323.39,796.52c-5.09,2.89-8.46,5.4-10.62,9.3.71.89,3,.74,3.23,1.61,1-5.29,2.82-6.12,7.39-10.91Z"/><path class="cls-7" d="M322.8,793.24c-5.28,2.73-9.59,6.38-11.56,10.15.72.88,3,.74,3.26,1.6.82-5.14,3.77-7.17,8.3-11.75Z"/><path class="cls-7" d="M322.21,790c-5.47,2.57-10.72,7.38-12.5,11,.73.87,3,.74,3.3,1.58.61-5,4.71-8.2,9.2-12.59Z"/><path class="cls-7" d="M321.62,786.67c-5.66,2.41-11.85,8.36-13.44,11.85.74.86,3,.76,3.33,1.58.41-4.85,5.66-9.25,10.11-13.43Z"/><path class="cls-7" d="M321,783.39c-5.84,2.25-13,9.35-14.37,12.7.75.85,3.05.76,3.36,1.56.21-4.69,6.61-10.28,11-14.26Z"/><path class="cls-7" d="M320.43,780.1c-6,2.09-14.09,10.34-15.31,13.56.76.84,3.06.76,3.39,1.55,0-4.55,7.56-11.33,11.92-15.11Z"/><path class="cls-7" d="M319.84,776.82c-6.22,1.93-15.22,11.33-16.24,14.4.76.84,3.06.77,3.41,1.54-.19-4.39,8.51-12.37,12.83-15.94Z"/><path class="cls-7" d="M319.25,773.53c-6.41,1.77-16.35,12.32-17.18,15.26.77.83,3.07.78,3.45,1.53-.4-4.25,9.45-13.41,13.73-16.79Z"/><path class="cls-7" d="M318.66,770.25c-6.6,1.61-17.48,13.31-18.12,16.11.78.82,3.08.78,3.48,1.51-.6-4.09,10.4-14.45,14.64-17.62Z"/><path class="cls-7" d="M463.33,654c6.87.09,8.87-1.66,14.68-5,0-2.09,1-4,1.54-5.55-5.78,6.6-7.7,7.82-16.22,10.51Z"/><path class="cls-7" d="M463.58,658.77c6.49.09,8.63-1.68,14.11-4.84,0-2,.87-3.8,1.36-5.25-5.44,6.31-7.44,7.52-15.47,10.09Z"/><path class="cls-7" d="M463.82,663.55c6.11.08,8.4-1.69,13.54-4.71a14.81,14.81,0,0,1,1.18-5c-5.08,6-7.17,7.21-14.72,9.67Z"/><path class="cls-7" d="M464.06,668.34c5.73.06,8.16-1.72,13-4.6a13.93,13.93,0,0,1,1-4.65c-4.73,5.74-6.9,6.9-14,9.25Z"/><path class="cls-7" d="M464.3,673.12c5.36.06,7.93-1.73,12.39-4.47a13.16,13.16,0,0,1,.83-4.36c-4.37,5.45-6.64,6.6-13.22,8.83Z"/><path class="cls-7" d="M464.55,677.91c5,0,7.69-1.76,11.82-4.36a12.18,12.18,0,0,1,.64-4.06c-4,5.17-6.37,6.29-12.46,8.42Z"/><path class="cls-7" d="M464.79,682.69c4.59,0,7.46-1.78,11.25-4.23a11.27,11.27,0,0,1,.47-3.77c-3.67,4.89-6.11,6-11.72,8Z"/><path class="cls-7" d="M465,687.48c4.22,0,7.23-1.81,10.68-4.12a10.55,10.55,0,0,1,.29-3.46c-3.31,4.59-5.84,5.67-11,7.58Z"/><path class="cls-7" d="M465.27,692.26c3.84,0,7-1.82,10.11-4a10,10,0,0,1,.11-3.16c-3,4.31-5.57,5.37-10.22,7.16Z"/><path class="cls-7" d="M465.52,697.05c3.45,0,6.75-1.85,9.52-3.88a9.62,9.62,0,0,1-.06-2.86c-2.6,4-5.31,5.05-9.46,6.74Z"/><path class="cls-7" d="M465.76,701.83c3.08,0,6.52-1.86,9-3.76a8.78,8.78,0,0,1-.24-2.56c-2.25,3.73-5.05,4.75-8.72,6.32Z"/><path class="cls-7" d="M466,706.62c2.7,0,6.29-1.89,8.38-3.64-.12-1.07-.53-1.48-.41-2.27-1.9,3.45-4.78,4.44-8,5.91Z"/><path class="cls-7" d="M274.57,291.81c-2.3,2.46,14.44,14.88,12.67,14.7-2.23-.23-9.08-1-10.72.14-.34.24-.84,1.49-1.28,1.13-1-.79-5-11.39-5-11.57,0-2,2.35-3.5,4.31-4.4Z"/><path class="cls-7" d="M273.79,319c1.31-.32.55.7,2.13.34a52,52,0,0,1,.44-14.77c-1.86,9.68-2.38,9.82-2.57,14.43Z"/><path class="cls-7" d="M275.61,319.85c1.29-.35.56.68,2.12.29a51.39,51.39,0,0,1,.07-14.68c-1.6,9.66-2.12,9.81-2.19,14.39Z"/><path class="cls-7" d="M277.43,320.74c1.27-.39.58.65,2.11.22a51.38,51.38,0,0,1-.31-14.58c-1.34,9.64-1.85,9.8-1.8,14.36Z"/><path class="cls-7" d="M279.25,321.62c1.25-.42.59.63,2.1.17a51.14,51.14,0,0,1-.69-14.49c-1.08,9.61-1.58,9.79-1.41,14.32Z"/><path class="cls-7" d="M281.07,322.5c1.23-.44.6.62,2.09.11a50.82,50.82,0,0,1-1.06-14.38c-.83,9.58-1.32,9.77-1,14.27Z"/><path class="cls-7" d="M282.89,323.38c1.21-.47.61.6,2.09.06a50.56,50.56,0,0,1-1.45-14.29c-.56,9.56-1,9.76-.64,14.23Z"/><path class="cls-7" d="M284.71,324.26c1.19-.5.62.58,2.08,0A50,50,0,0,1,285,310.07c-.31,9.54-.79,9.75-.26,14.19Z"/><path class="cls-7" d="M286.52,325.14c1.18-.53.65.56,2.08-.05a50.22,50.22,0,0,1-2.2-14.1c0,9.52-.52,9.74.12,14.15Z"/><path class="cls-7" d="M288.34,326c1.16-.56.66.55,2.07-.11a50.08,50.08,0,0,1-2.58-14c.21,9.5-.25,9.73.51,14.11Z"/><path class="cls-7" d="M290.16,326.91c1.14-.6.67.52,2.06-.17a49.74,49.74,0,0,1-3-13.91c.47,9.47,0,9.72.89,14.08Z"/><path class="cls-7" d="M292,327.79c1.12-.63.68.5,2-.23a49.87,49.87,0,0,1-3.33-13.8c.73,9.44.28,9.71,1.28,14Z"/><path class="cls-7" d="M293.8,328.67c1.11-.66.69.48,2-.28a50.28,50.28,0,0,1-3.71-13.71c1,9.42.55,9.69,1.67,14Z"/><path class="cls-7" d="M295.62,329.55c1.09-.69.7.47,2-.34a49.59,49.59,0,0,1-4.09-13.61c1.25,9.4.82,9.69,2.05,13.95Z"/><path class="cls-7" d="M297.43,330.43c1.08-.72.73.45,2-.39A50.09,50.09,0,0,1,295,316.52c1.51,9.38,1.08,9.68,2.43,13.91Z"/><path class="cls-7" d="M299.25,331.31c1.06-.75.74.43,2-.45a49.74,49.74,0,0,1-4.84-13.42c1.76,9.36,1.34,9.67,2.81,13.87Z"/><path class="cls-7" d="M301.07,332.2c1-.79.75.41,2-.51a50.17,50.17,0,0,1-5.22-13.33c2,9.33,1.61,9.66,3.2,13.84Z"/><path class="cls-7" d="M302.89,333.08c1-.81.76.39,2-.57a50.4,50.4,0,0,1-5.6-13.22c2.29,9.3,1.88,9.64,3.59,13.79Z"/><path class="cls-7" d="M304.71,334c1-.84.77.37,2-.62a51.06,51.06,0,0,1-6-13.13c2.54,9.28,2.14,9.63,4,13.75Z"/><path class="cls-7" d="M306.53,334.84c1-.87.79.35,2-.68a51.15,51.15,0,0,1-6.35-13c2.8,9.26,2.42,9.62,4.36,13.71Z"/><path class="cls-7" d="M308.34,335.72c1-.9.81.34,2-.73a51.21,51.21,0,0,1-6.72-12.94c3.05,9.24,2.68,9.61,4.73,13.67Z"/><path class="cls-7" d="M310.16,336.6c.95-.93.82.32,2-.78A51.62,51.62,0,0,1,305,323c3.32,9.21,2.95,9.6,5.12,13.63Z"/><path class="cls-7" d="M312,337.48c.93-1,.83.3,2-.84a51.91,51.91,0,0,1-7.49-12.74c3.58,9.18,3.21,9.58,5.51,13.58Z"/><path class="cls-7" d="M300.76,337.56c.4-1.28-.5-.76-.05-2.31,4.31,1.91,10.78,4,18,1.37-6.39,4.11-13.14,1.83-18,.94Z"/><path class="cls-7" d="M300.88,338.68c.4-1.24-.52-.83-.06-2.33,4.16,1.94,10.59,4,17.66,1.46-6.33,4-12.92,1.78-17.6.87Z"/><path class="cls-7" d="M301,339.81c.41-1.2-.54-.9-.07-2.36,4,2,10.4,4,17.32,1.55-6.29,3.82-12.7,1.74-17.25.81Z"/><path class="cls-7" d="M301.12,340.93c.41-1.16-.56-1-.08-2.37,3.86,2,10.22,3.93,17,1.62-6.24,3.69-12.47,1.7-16.89.75Z"/><path class="cls-7" d="M301.24,342.06c.42-1.12-.58-1-.09-2.4a21.37,21.37,0,0,0,16.62,1.71c-6.19,3.54-12.25,1.66-16.53.69Z"/><path class="cls-7" d="M301.35,343.19c.43-1.09-.58-1.1-.09-2.42a20.87,20.87,0,0,0,16.28,1.79c-6.14,3.4-12,1.61-16.19.63Z"/><path class="cls-7" d="M301.47,344.31c.44-1-.6-1.16-.1-2.44a20.36,20.36,0,0,0,15.93,1.88c-6.09,3.26-11.8,1.56-15.83.56Z"/><path class="cls-7" d="M301.59,345.44c.44-1-.62-1.24-.11-2.46a19.91,19.91,0,0,0,15.59,1.95c-6.05,3.12-11.59,1.53-15.48.51Z"/><path class="cls-7" d="M301.71,346.57c.45-1-.64-1.31-.12-2.48,3.1,2.12,9.28,3.74,15.24,2-6,3-11.36,1.48-15.12.45Z"/><path class="cls-7" d="M301.83,347.69c.45-.93-.66-1.37-.13-2.5,2.95,2.15,9.1,3.71,14.9,2.12-6,2.84-11.14,1.43-14.77.38Z"/><path class="cls-7" d="M302,348.82c.46-.89-.68-1.44-.15-2.53,2.81,2.18,8.92,3.68,14.56,2.2-5.9,2.71-10.92,1.4-14.41.33Z"/><path class="cls-7" d="M302.07,349.94c.46-.85-.69-1.5-.16-2.54,2.66,2.2,8.73,3.63,14.21,2.28-5.85,2.56-10.69,1.35-14.05.26Z"/><path class="cls-7" d="M302.19,351.07c.47-.81-.71-1.57-.17-2.57,2.5,2.23,8.55,3.6,13.87,2.37a18.23,18.23,0,0,1-13.7.2Z"/><path class="cls-7" d="M302.31,352.19c.47-.77-.73-1.64-.18-2.58,2.35,2.25,8.36,3.56,13.52,2.45a17.79,17.79,0,0,1-13.34.13Z"/><path class="cls-7" d="M302.43,353.32c.48-.73-.75-1.71-.19-2.61,2.2,2.29,8.17,3.53,13.18,2.53a17.44,17.44,0,0,1-13,.08Z"/><path class="cls-7" d="M302.55,354.45c.48-.7-.77-1.78-.2-2.63,2,2.31,8,3.48,12.83,2.61-5.66,2-9.8,1.18-12.63,0Z"/><path class="cls-7" d="M302.67,355.57c.49-.66-.78-1.84-.21-2.65,1.9,2.34,7.8,3.45,12.49,2.7-5.62,1.86-9.59,1.13-12.28-.05Z"/><path class="cls-7" d="M302.79,356.7c.49-.62-.8-1.91-.22-2.67,1.75,2.36,7.61,3.41,12.14,2.78-5.56,1.72-9.36,1.08-11.92-.11Z"/><path class="cls-7" d="M302.91,357.83c.5-.59-.82-2-.23-2.7,1.59,2.39,7.42,3.38,11.79,2.86-5.51,1.58-9.13,1.05-11.56-.16Z"/><path class="cls-7" d="M303,359c.5-.54-.84-2.05-.24-2.71,1.44,2.41,7.24,3.33,11.45,2.94-5.47,1.44-8.92,1-11.21-.23Z"/><path class="cls-7" d="M303.15,360.08c.51-.51-.86-2.12-.25-2.74,1.29,2.44,7.05,3.3,11.1,3-5.42,1.3-8.69,1-10.85-.29Z"/><path class="cls-7" d="M303.26,361.2c.52-.46-.87-2.18-.25-2.75,1.14,2.46,6.86,3.26,10.76,3.11-5.37,1.15-8.47.91-10.51-.36Z"/><path class="cls-8" d="M278.48,341.77c5.83,12.1,22.1,12.89,27.39,22.27-5.41-3.35-11.16-7.9-15.28-6.51-7.25,2.59-13.18,8.06-18,15.91a116,116,0,0,1-.15-27.27c.19-1.77,1-3.44,6.05-4.4Z"/><path class="cls-7" d="M271.91,294.7c.8.09.67.9,1.64,1a31.26,31.26,0,0,1,3.31-8.31c-3.85,3.95-3.89,4.7-4.95,7.28Z"/><path class="cls-7" d="M273.09,295.66c.78.08.66.87,1.6,1a30.16,30.16,0,0,1,3.13-8.07c-3.69,3.85-3.72,4.58-4.73,7.09Z"/><path class="cls-7" d="M274.3,296.58c.76.07.65.83,1.56.93a29.57,29.57,0,0,1,3-7.84c-3.53,3.76-3.56,4.47-4.52,6.91Z"/><path class="cls-7" d="M275.55,297.46c.73.06.63.8,1.51.89a28.37,28.37,0,0,1,2.79-7.61c-3.38,3.67-3.4,4.36-4.3,6.72Z"/><path class="cls-7" d="M276.82,298.3c.71.05.62.77,1.47.84a27.6,27.6,0,0,1,2.62-7.37c-3.23,3.57-3.24,4.24-4.09,6.53Z"/><path class="cls-7" d="M278.13,299.1c.68,0,.6.73,1.42.79a26.82,26.82,0,0,1,2.45-7.15c-3.08,3.49-3.08,4.13-3.87,6.36Z"/><path class="cls-7" d="M279.46,299.85c.66,0,.59.69,1.39.75a25.23,25.23,0,0,1,2.27-6.92c-2.93,3.39-2.93,4-3.66,6.17Z"/><path class="cls-7" d="M280.82,300.55c.64,0,.58.66,1.34.7a24.42,24.42,0,0,1,2.11-6.68c-2.78,3.3-2.77,3.9-3.45,6Z"/><path class="cls-7" d="M282.2,301.2c.62,0,.57.63,1.3.66a23.87,23.87,0,0,1,1.94-6.46c-2.63,3.22-2.61,3.79-3.24,5.8Z"/><path class="cls-7" d="M283.61,301.8c.59,0,.55.6,1.26.61a22.58,22.58,0,0,1,1.76-6.22c-2.47,3.12-2.45,3.67-3,5.61Z"/><path class="cls-7" d="M285,302.35c.56,0,.54.57,1.21.57a22.15,22.15,0,0,1,1.59-6c-2.32,3-2.28,3.56-2.8,5.42Z"/><path class="cls-7" d="M286.49,302.85c.53,0,.52.54,1.17.53a20.79,20.79,0,0,1,1.42-5.77c-2.17,2.95-2.13,3.45-2.59,5.24Z"/><path class="cls-7" d="M288,303.31c.51,0,.51.49,1.13.47a20,20,0,0,1,1.25-5.53c-2,2.85-2,3.33-2.38,5.06Z"/><path class="cls-7" d="M289.43,303.7c.49,0,.5.47,1.09.44a18.84,18.84,0,0,1,1.07-5.31c-1.86,2.77-1.81,3.22-2.16,4.87Z"/><path class="cls-7" d="M290.92,304.05c.46,0,.48.43,1,.39a18.47,18.47,0,0,1,.9-5.07c-1.71,2.67-1.64,3.1-1.94,4.68Z"/><path class="cls-7" d="M292.42,304.35c.44-.05.47.4,1,.35a17.44,17.44,0,0,1,.73-4.85c-1.56,2.59-1.49,3-1.73,4.5Z"/><path class="cls-7" d="M293.93,304.6c.41-.06.45.37,1,.3a16.29,16.29,0,0,1,.55-4.61,8.48,8.48,0,0,0-1.51,4.31Z"/><path class="cls-7" d="M295.44,304.81c.39-.08.44.33.92.25a15.63,15.63,0,0,1,.38-4.38,8.06,8.06,0,0,0-1.3,4.13Z"/><path class="cls-7" d="M297,305c.37-.09.43.29.87.2a14.67,14.67,0,0,1,.22-4.15,7.57,7.57,0,0,0-1.09,4Z"/><path class="cls-5" d="M8.71,800.92l-.33,0a2.32,2.32,0,0,1-2-2.62c.64-4.56,1.31-9.45,2-14.62C15,735.58,24.9,662.94,49,586.28c5.78-15.14,10.59-28.69,15.25-41.8,7.17-20.21,14-39.3,23.88-63.51a2.32,2.32,0,1,1,4.3,1.76C82.52,506.85,75.76,525.88,68.6,546c-4.67,13.13-9.49,26.7-15.24,41.76C29.45,664,19.56,736.36,13,784.28c-.71,5.18-1.37,10.07-2,14.63A2.34,2.34,0,0,1,8.71,800.92Z"/><path class="cls-5" d="M53.42,580.87h0a8.33,8.33,0,0,1-4.88-10.72L75.45,498.3a8.32,8.32,0,0,1,10.72-4.88h0a8.33,8.33,0,0,1,4.88,10.72L64.14,576A8.33,8.33,0,0,1,53.42,580.87Z"/><path class="cls-5" d="M13.56,797.14h-.14a2.33,2.33,0,0,1-2.18-2.46c.24-4.07.51-8.83.81-14.19,3.29-58.13,10.14-179.1,28.23-258.4,4.55-15.55,8.26-29.44,11.85-42.87,5.54-20.72,10.78-40.3,18.74-65.23a2.32,2.32,0,0,1,4.43,1.41c-7.93,24.83-13.15,44.36-18.67,65-3.6,13.46-7.32,27.37-11.85,42.84C26.81,602,20,722.74,16.69,780.75c-.3,5.36-.57,10.13-.81,14.21A2.33,2.33,0,0,1,13.56,797.14Z"/><path class="cls-5" d="M44.29,516.34h0A8.33,8.33,0,0,1,38.57,506l21.07-73.77a8.34,8.34,0,0,1,10.3-5.72h0a8.33,8.33,0,0,1,5.72,10.3L54.58,510.62A8.33,8.33,0,0,1,44.29,516.34Z"/><path class="cls-6" d="M119.79,655.87c-7.85,30.33-11.13,64.19-9.42,97.31,9.1-39.63,18.47-80,34.46-112.43-12.92,30.65-19,69.78-16.68,107.55,7.25-28.28,19.18-52.87,34-70-10.4,20-18.78,43.07-24.67,68,7.59-16,17.51-28.71,28.58-36.54-7.34,12.09-21.33,57.17-24.61,73.79,8-14,25.24-56.3,34.81-66.87a148.34,148.34,0,0,0-6.11,41.87c5-17.58,13-32.59,22.63-42.7a140.75,140.75,0,0,0,4,52.78q6.16-16.11,12.32-32.23c4-10.52,8.07-21.1,12.95-30.47a145,145,0,0,1,22.4-31.32c-11.85,21.3-21.15,46.84-27.15,74.55,8.51-19.82,19.07-37,31-50.44-10.08,20.2-33.46,68.23-24.55,96.92,2.54-25.45,17-66,28.59-78.1C248.37,732,245.19,747.6,245,763.7s3.07,28.86,10.14,39.26c-25.52-.25-233.28,1.74-279.57,1.29,1.79-24.21,7.48-47.51,16.27-66.56a250.54,250.54,0,0,0-8,39.24c9.91-32.62,23.87-61.5,40.65-84.09C14.29,715,3.51,739.36,3,767.82q13.44-34,28.78-65.6c-10.16,18.11-19.44,63.86-20,89.12C18,766.43,28.21,720.84,38,699.57S60.44,660.38,75.34,652C59,686.17,41.77,723.59,40.21,768c6.7-28.42,16.56-54.58,28.88-76.6-6.91,23-17,68.54-19.23,94.18,4.91-15.4,14.47-51.32,22.13-62.86a135.47,135.47,0,0,0-3,40.58q6.15-26.85,13-53.19c10.37-39.73,22.75-80.1,43.37-105,10-12.06,21.42-19.88,32.75-27.6-38.2,25.33-69.45,142.29-67.92,213.23C95.22,758.94,108.31,682.09,119.79,655.87Z"/></g></svg>